<svg width="57" height="58" viewBox="0 0 57 58" fill="none" xmlns="http://www.w3.org/2000/svg">
<path d="M24.3759 48.7518C29.7842 48.7507 35.0367 46.9402 39.297 43.6085L52.6916 57.003L57 52.6946L43.6054 39.3C46.9388 35.0393 48.7505 29.7856 48.7518 24.3759C48.7518 10.9356 37.8162 0 24.3759 0C10.9356 0 0 10.9356 0 24.3759C0 37.8162 10.9356 48.7518 24.3759 48.7518ZM24.3759 6.09398C34.4584 6.09398 42.6578 14.2934 42.6578 24.3759C42.6578 34.4584 34.4584 42.6578 24.3759 42.6578C14.2934 42.6578 6.09398 34.4584 6.09398 24.3759C6.09398 14.2934 14.2934 6.09398 24.3759 6.09398Z" fill="white"/>
</svg>
