<svg width="63" height="63" viewBox="0 0 63 63" fill="none" xmlns="http://www.w3.org/2000/svg">
<path fill-rule="evenodd" clip-rule="evenodd" d="M31.4993 0.791992C14.54 0.791992 0.791016 14.5409 0.791016 31.5003C0.791016 48.4597 14.54 62.2087 31.4993 62.2087C48.4587 62.2087 62.2077 48.4597 62.2077 31.5003C62.2077 14.5409 48.4587 0.791992 31.4993 0.791992ZM44.81 26.3078C45.0551 26.0277 45.2417 25.7013 45.3588 25.348C45.4759 24.9946 45.5212 24.6214 45.4919 24.2503C45.4627 23.8792 45.3595 23.5177 45.1885 23.1871C45.0175 22.8565 44.7821 22.5634 44.4961 22.3251C44.2101 22.0868 43.8794 21.9081 43.5233 21.7995C43.1673 21.6909 42.7931 21.6546 42.4228 21.6927C42.0525 21.7309 41.6936 21.8427 41.3672 22.0216C41.0407 22.2005 40.7534 22.4429 40.522 22.7345L28.5178 37.1367L22.3064 30.9224C21.7799 30.4139 21.0747 30.1325 20.3427 30.1389C19.6108 30.1453 18.9106 30.4389 18.393 30.9565C17.8754 31.4741 17.5818 32.1742 17.5754 32.9062C17.5691 33.6382 17.8504 34.3433 18.359 34.8699L26.734 43.2449C27.0083 43.519 27.3367 43.733 27.6983 43.8732C28.0598 44.0133 28.4467 44.0766 28.8341 44.0591C29.2215 44.0415 29.6009 43.9433 29.9483 43.771C30.2957 43.5986 30.6034 43.3557 30.8517 43.0578L44.81 26.3078Z" fill="#4ECB71"/>
</svg>
