<svg width="71" height="84" viewBox="0 0 71 84" fill="none" xmlns="http://www.w3.org/2000/svg">
<path d="M59.0961 44.7923C58.9988 34.2369 67.9514 29.1017 68.3608 28.8627C63.2905 21.6478 55.4318 20.6621 52.6702 20.5835C46.0698 19.9055 39.6674 24.4381 36.3051 24.4381C32.8758 24.4381 27.6981 20.649 22.1178 20.7603C14.9369 20.8684 8.21913 24.9261 4.53473 31.2272C-3.06896 44.075 2.60193 62.9554 9.88684 73.3404C13.531 78.4265 17.7892 84.1054 23.3628 83.9056C28.8155 83.6862 30.8524 80.5127 37.4326 80.5127C43.9524 80.5127 45.8651 83.9056 51.5494 83.7779C57.4015 83.6862 61.0859 78.6689 64.6025 73.5369C68.8137 67.7074 70.505 61.9664 70.5721 61.6716C70.4345 61.6258 59.2068 57.4436 59.0961 44.7923Z" fill="white"/>
<path d="M48.3583 13.7518C51.291 10.1722 53.2977 5.30233 52.7406 0.360352C48.4959 0.543752 43.1874 3.22598 40.1305 6.72695C37.4259 9.812 35.0099 14.8686 35.634 19.6239C40.4023 19.971 45.298 17.2757 48.3583 13.7518Z" fill="white"/>
</svg>
