<svg width="15" height="14" viewBox="0 0 15 14" fill="none" xmlns="http://www.w3.org/2000/svg">
<path d="M0.18327 0.996965C0.125166 0.942735 0.079076 0.878354 0.0476304 0.807499C0.0161849 0.736644 6.12223e-10 0.660702 0 0.584009C-6.12223e-10 0.507316 0.0161849 0.431373 0.0476304 0.360518C0.079076 0.289663 0.125166 0.225282 0.18327 0.171052C0.241374 0.116822 0.310353 0.0738043 0.38627 0.0444551C0.462186 0.0151059 0.543552 -5.71408e-10 0.625724 0C0.707895 5.71408e-10 0.789261 0.0151059 0.865178 0.0444551C0.941094 0.0738043 1.01007 0.116822 1.06818 0.171052L7.5 6.17525L13.9318 0.171052C13.9899 0.116822 14.0589 0.0738043 14.1348 0.0444551C14.2107 0.0151059 14.2921 0 14.3743 0C14.4564 0 14.5378 0.0151059 14.6137 0.0444551C14.6896 0.0738043 14.7586 0.116822 14.8167 0.171052C14.8748 0.225282 14.9209 0.289663 14.9524 0.360518C14.9838 0.431373 15 0.507316 15 0.584009C15 0.660702 14.9838 0.736644 14.9524 0.807499C14.9209 0.878354 14.8748 0.942735 14.8167 0.996965L8.38366 7L14.8167 13.003C14.8748 13.0573 14.9209 13.1216 14.9524 13.1925C14.9838 13.2634 15 13.3393 15 13.416C15 13.4927 14.9838 13.5686 14.9524 13.6395C14.9209 13.7103 14.8748 13.7747 14.8167 13.8289C14.7586 13.8832 14.6896 13.9262 14.6137 13.9555C14.5378 13.9849 14.4564 14 14.3743 14C14.2921 14 14.2107 13.9849 14.1348 13.9555C14.0589 13.9262 13.9899 13.8832 13.9318 13.8289L7.5 7.82475L1.06818 13.8289C1.01007 13.8832 0.941094 13.9262 0.865178 13.9555C0.789261 13.9849 0.707895 14 0.625724 14C0.543552 14 0.462186 13.9849 0.38627 13.9555C0.310353 13.9262 0.241374 13.8832 0.18327 13.8289C0.125166 13.7747 0.079076 13.7103 0.0476304 13.6395C0.0161849 13.5686 0 13.4927 0 13.416C0 13.3393 0.0161849 13.2634 0.0476304 13.1925C0.079076 13.1216 0.125166 13.0573 0.18327 13.003L6.61634 7L0.18327 0.996965Z" fill="black"/>
</svg>
