<svg width="47" height="48" viewBox="0 0 47 48" fill="none" xmlns="http://www.w3.org/2000/svg">
<path fill-rule="evenodd" clip-rule="evenodd" d="M43.0062 3.34495H4.15524C3.81178 3.34495 3.48238 3.48139 3.23951 3.72425C2.99665 3.96712 2.86021 4.29652 2.86021 4.63998V43.491C2.86021 43.8344 2.99665 44.1638 3.23951 44.4067C3.48238 44.6496 3.81178 44.786 4.15524 44.786H43.0062C43.3497 44.786 43.6791 44.6496 43.922 44.4067C44.1648 44.1638 44.3013 43.8344 44.3013 43.491V4.63998C44.3013 4.29652 44.1648 3.96712 43.922 3.72425C43.6791 3.48139 43.3497 3.34495 43.0062 3.34495ZM4.15524 0.754883C3.12485 0.754883 2.13666 1.1642 1.40806 1.8928C0.679463 2.6214 0.270142 3.60959 0.270142 4.63998V43.491C0.270142 44.5214 0.679463 45.5095 1.40806 46.2381C2.13666 46.9667 3.12485 47.3761 4.15524 47.3761H43.0062C44.0366 47.3761 45.0248 46.9667 45.7534 46.2381C46.482 45.5095 46.8913 44.5214 46.8913 43.491V4.63998C46.8913 3.60959 46.482 2.6214 45.7534 1.8928C45.0248 1.1642 44.0366 0.754883 43.0062 0.754883H4.15524Z" fill="white"/>
<path fill-rule="evenodd" clip-rule="evenodd" d="M19.0339 14.1326C16.9061 14.5004 15.356 16.3031 15.1021 18.4477L13.2205 34.4258H33.941L32.0554 18.4257C31.8042 16.2915 30.2683 14.4927 28.1522 14.1223C24.9794 13.5667 22.3349 13.5615 19.0339 14.1326ZM20.641 19.7246C20.675 19.3882 20.576 19.0518 20.3653 18.7873C20.1545 18.5229 19.8487 18.3513 19.5132 18.3094C19.1776 18.2674 18.839 18.3584 18.5696 18.5628C18.3002 18.7673 18.1215 19.069 18.0717 19.4034L16.8996 28.7769C16.8742 28.9476 16.8831 29.1218 16.9259 29.289C16.9687 29.4563 17.0446 29.6133 17.1489 29.7508C17.2533 29.8883 17.3841 30.0036 17.5337 30.0898C17.6833 30.176 17.8486 30.2315 18.0199 30.2529C18.1912 30.2743 18.3651 30.2613 18.5313 30.2145C18.6975 30.1677 18.8526 30.0882 18.9876 29.9806C19.1226 29.873 19.2348 29.7395 19.3174 29.5879C19.4001 29.4364 19.4516 29.2698 19.469 29.098L20.641 19.7246Z" fill="white"/>
<path fill-rule="evenodd" clip-rule="evenodd" d="M21.6045 16.3951C22.1771 16.8016 22.6288 17.3558 22.9116 17.9986C23.1944 18.6415 23.2976 19.3489 23.2103 20.0458L22.0396 29.4192C21.9179 30.3905 21.4491 31.2323 20.7705 31.8357H31.0271L29.4835 18.7287C29.3514 17.602 28.5718 16.825 27.7067 16.6735C25.5427 16.2953 23.6791 16.1982 21.6045 16.3951ZM32.0554 18.4257C31.8042 16.2915 30.2683 14.4927 28.1522 14.1223C24.9793 13.5667 22.3349 13.5615 19.0339 14.1326C16.9061 14.5004 15.356 16.3031 15.1021 18.4477L13.2204 34.4258H33.941L32.0554 18.4257ZM20.641 19.7246L19.469 29.098C19.4516 29.2698 19.4001 29.4364 19.3174 29.5879C19.2348 29.7395 19.1226 29.873 18.9876 29.9806C18.8526 30.0882 18.6974 30.1677 18.5312 30.2145C18.3651 30.2613 18.1912 30.2743 18.0199 30.2529C17.8486 30.2315 17.6833 30.176 17.5337 30.0898C17.3841 30.0036 17.2533 29.8883 17.1489 29.7508C17.0446 29.6133 16.9687 29.4563 16.9259 29.289C16.8831 29.1218 16.8742 28.9476 16.8996 28.7769L18.0716 19.4034C18.089 19.2317 18.1405 19.0651 18.2232 18.9135C18.3059 18.762 18.418 18.6284 18.553 18.5208C18.688 18.4132 18.8432 18.3337 19.0094 18.287C19.1756 18.2402 19.3494 18.2272 19.5207 18.2486C19.6921 18.27 19.8574 18.3254 20.0069 18.4117C20.1565 18.4979 20.2873 18.6132 20.3917 18.7507C20.4961 18.8882 20.5719 19.0452 20.6147 19.2125C20.6575 19.3797 20.6664 19.5538 20.641 19.7246ZM35.236 39.6059H11.9254V37.0159H35.236V39.6059Z" fill="white"/>
<path d="M9.33542 24.0655C9.33542 24.5019 9.35484 24.9332 9.39369 25.3605H5.45032V22.7705H9.39369C9.35484 23.1978 9.33542 23.6291 9.33542 24.0655ZM11.941 15.8498C11.4416 16.5565 11.0077 17.3073 10.6447 18.0928L7.23228 16.1218L8.52732 13.8788L11.941 15.8498ZM17.6068 11.1281C16.8181 11.4946 16.0683 11.9298 15.3664 12.4258L13.394 9.01206L15.637 7.71702L17.6068 11.1294V11.1281ZM23.5808 9.82016C23.1444 9.82016 22.7131 9.83958 22.2857 9.87843V5.93506H24.8758V9.87843C24.4452 9.83967 24.0131 9.82022 23.5808 9.82016ZM31.7965 12.4258C31.0898 11.9264 30.339 11.4925 29.5535 11.1294L31.5245 7.71702L33.7675 9.01206L31.7965 12.4258ZM36.5182 18.0915C36.1546 17.3068 35.7203 16.5569 35.2205 15.8511L38.6342 13.8788L39.9293 16.1218L36.5169 18.0915H36.5182ZM37.8261 24.0655C37.8261 23.6291 37.8067 23.1978 37.7679 22.7705H41.7112V25.3605H37.7679C37.8067 24.9332 37.8261 24.5019 37.8261 24.0655Z" fill="white"/>
</svg>
