<svg width="77" height="49" viewBox="0 0 77 49" fill="none" xmlns="http://www.w3.org/2000/svg">
<path d="M70.027 20.9604C70.0013 18.6365 69.9927 16.2954 69.9841 13.963H63.0369C63.0111 16.2868 62.9939 18.6193 62.9767 20.9604C60.6381 20.969 58.3166 20.9862 55.9952 21.012V27.975C58.3166 28.0009 60.6553 28.0181 62.9767 28.0439C63.0025 30.3678 63.0025 32.7002 63.0197 35.0241H69.9755C69.9841 32.7002 70.0013 30.3678 70.0184 28.0267C72.3571 28.0009 74.6786 27.9922 77 27.9664V21.0034C74.6871 20.9862 72.3485 20.9862 70.027 20.9604ZM24.4578 20.9948C24.4492 23.7749 24.4578 26.5635 24.4664 29.3435C29.1265 29.4985 33.7952 29.4296 38.4553 29.4985C36.4004 39.8526 22.3427 43.2093 14.9054 36.4442C7.25325 30.5141 7.61437 17.509 15.5675 12.0006C21.1304 7.55942 29.0319 8.6525 34.5948 12.4998C36.7787 10.4772 38.825 8.30822 40.7939 6.07042C36.1682 2.37805 30.4936 -0.255664 24.4578 0.0197574C11.8532 -0.401982 0.271698 10.6493 0.0653467 23.2757C-0.742863 33.5954 6.03234 43.7085 15.5933 47.3578C25.1198 51.033 37.3376 48.5284 43.4249 39.9559C47.4402 34.5421 48.3086 27.5705 47.8357 21.0206C40.0373 20.9604 32.2476 20.969 24.4578 20.9948Z" fill="white"/>
</svg>
