<svg width="66" height="65" viewBox="0 0 66 65" fill="none" xmlns="http://www.w3.org/2000/svg">
<path fill-rule="evenodd" clip-rule="evenodd" d="M5.45501 59.545C3.82501 57.91 2.54501 55.945 1.71001 53.79C0.910011 51.72 0.360008 49.36 0.200012 45.9C0.0400085 42.435 7.62939e-06 41.325 7.62939e-06 32.5C7.62939e-06 23.675 0.0400085 22.565 0.200012 19.1C0.360008 15.64 0.910011 13.28 1.71001 11.21C2.52648 9.04172 3.80625 7.0777 5.46001 5.455C7.08291 3.80149 9.04687 2.52176 11.215 1.705C13.285 0.905 15.645 0.355 19.105 0.195C22.57 0.0350002 23.68 0 32.505 0C41.33 0 42.44 0.0349998 45.905 0.2C49.365 0.35 51.725 0.9 53.795 1.705C55.9622 2.52362 57.9258 3.80311 59.55 5.455C61.2019 7.07923 62.4814 9.04281 63.3 11.21C64.1 13.28 64.65 15.64 64.81 19.1C64.97 22.565 65.005 23.675 65.005 32.5C65.005 41.325 64.97 42.435 64.805 45.9C64.655 49.36 64.105 51.72 63.3 53.79C62.48 55.96 61.2 57.92 59.55 59.545C57.925 61.195 55.96 62.475 53.795 63.295C51.725 64.095 49.365 64.645 45.905 64.805C42.44 64.96 41.33 65 32.505 65C23.68 65 22.57 64.96 19.105 64.8C15.645 64.65 13.285 64.1 11.215 63.295C9.05641 62.4595 7.09619 61.1822 5.46001 59.545H5.45501ZM60.005 28.675V36.325C60.015 40.43 60.015 41.495 59.905 43.825C59.775 46.755 59.615 48.905 59.125 50.525C58.655 52.085 58.13 53.675 56.41 55.585C54.69 57.5 53.035 58.365 50.925 59.005C48.81 59.64 46.155 59.775 43.85 59.88C41.24 60 40.2 60 34.72 60H28.805C24.595 60.005 23.535 60.01 21.175 59.9C18.25 59.765 16.1 59.605 14.475 59.12C12.92 58.65 11.33 58.12 9.42001 56.405C7.50501 54.685 6.64001 53.025 6.00001 50.915C5.36501 48.805 5.22501 46.15 5.12001 43.845C5.00501 41.235 5.00501 40.2 5.00501 34.735V30.285C5.00501 24.805 5.00501 23.77 5.12001 21.155C5.22501 18.85 5.36501 16.195 6.00001 14.085C6.63501 11.97 7.50001 10.315 9.42001 8.595C11.335 6.875 12.92 6.35 14.475 5.88C16.1 5.395 18.25 5.23 21.175 5.1C23.7169 4.99554 26.2612 4.9622 28.805 5H34.72C40.2 5 41.24 5 43.85 5.115C46.155 5.22 48.81 5.36 50.925 5.995C53.035 6.635 54.69 7.5 56.41 9.415C58.13 11.33 58.66 12.915 59.125 14.475C59.615 16.095 59.775 18.245 59.905 21.175C60.015 23.505 60.015 24.57 60.005 28.675ZM32.505 21.25C35.4887 21.25 38.3502 22.4353 40.46 24.545C42.5697 26.6548 43.755 29.5163 43.755 32.5C43.755 35.4837 42.5697 38.3452 40.46 40.4549C38.3502 42.5647 35.4887 43.75 32.505 43.75C29.5213 43.75 26.6598 42.5647 24.5501 40.4549C22.4403 38.3452 21.255 35.4837 21.255 32.5C21.255 29.5163 22.4403 26.6548 24.5501 24.545C26.6598 22.4353 29.5213 21.25 32.505 21.25ZM48.755 32.5C48.755 28.1902 47.043 24.057 43.9955 21.0095C40.948 17.962 36.8148 16.25 32.505 16.25C28.1952 16.25 24.062 17.962 21.0145 21.0095C17.9671 24.057 16.255 28.1902 16.255 32.5C16.255 36.8098 17.9671 40.943 21.0145 43.9905C24.062 47.0379 28.1952 48.75 32.505 48.75C36.8148 48.75 40.948 47.0379 43.9955 43.9905C47.043 40.943 48.755 36.8098 48.755 32.5ZM15.155 18.9C14.1604 18.9 13.2066 18.5049 12.5034 17.8016C11.8001 17.0984 11.405 16.1446 11.405 15.15C11.405 14.1554 11.8001 13.2016 12.5034 12.4984C13.2066 11.7951 14.1604 11.4 15.155 11.4C16.1496 11.4 17.1034 11.7951 17.8067 12.4984C18.5099 13.2016 18.905 14.1554 18.905 15.15C18.905 16.1446 18.5099 17.0984 17.8067 17.8016C17.1034 18.5049 16.1496 18.9 15.155 18.9Z" fill="white"/>
</svg>
