<svg width="72" height="58" viewBox="0 0 72 58" fill="none" xmlns="http://www.w3.org/2000/svg">
<path d="M71.3688 6.86591C68.6963 8.04984 65.8616 8.82697 62.959 9.17145C65.9824 7.35935 68.3039 4.48982 69.397 1.07081C66.5229 2.77637 63.3783 3.97805 60.0992 4.62392C57.4282 1.77837 53.6231 0 49.4115 0C41.3251 0 34.7689 6.5559 34.7689 14.6418C34.7689 15.7895 34.8985 16.9069 35.148 17.9788C22.9791 17.368 12.1901 11.5389 4.96822 2.68023C3.70811 4.84277 2.98606 7.35824 2.98606 10.0413C2.98606 15.1213 5.57123 19.6027 9.49986 22.2286C7.17466 22.1558 4.90061 21.5278 2.86758 20.397C2.86674 20.4583 2.86674 20.5197 2.86674 20.5813C2.86674 27.6755 7.91386 33.5935 14.6119 34.9387C12.4558 35.5251 10.1941 35.6109 7.99972 35.1896C9.86284 41.0067 15.2704 45.2398 21.6774 45.3582C16.6663 49.2852 10.3527 51.6262 3.49289 51.6262C2.31084 51.6262 1.14553 51.5567 0 51.4215C6.47979 55.576 14.1762 58 22.4449 58C49.3775 58 64.1048 35.6886 64.1048 16.3398C64.1048 15.7048 64.0909 15.0733 64.0624 14.4455C66.929 12.3733 69.4032 9.80657 71.3688 6.86591Z" fill="#55ACEE"/>
</svg>
