<?xml version="1.0" standalone="no"?>
<!DOCTYPE svg PUBLIC "-//W3C//DTD SVG 20010904//EN"
 "http://www.w3.org/TR/2001/REC-SVG-20010904/DTD/svg10.dtd">
<svg version="1.0" xmlns="http://www.w3.org/2000/svg"
 width="1040.000000pt" height="1040.000000pt" viewBox="0 0 1040.000000 1040.000000"
 preserveAspectRatio="xMidYMid meet">
<metadata>
Created by potrace 1.14, written by Peter Selinger 2001-2017
</metadata>
<g transform="translate(0.000000,1040.000000) scale(0.100000,-0.100000)"
fill="#000000" stroke="none">
<path d="M3736 9772 c-10 -15 -15 -20 -13 -11 3 9 -1 16 -9 16 -7 0 -11 -4 -8
-8 2 -4 0 -10 -6 -14 -5 -3 -10 0 -10 7 0 9 -3 9 -10 -2 -5 -8 -10 -10 -10 -4
0 6 -7 11 -15 11 -11 0 -12 -4 -4 -13 8 -9 5 -11 -10 -7 -12 3 -18 10 -14 16
3 6 1 7 -6 3 -6 -4 -9 -12 -6 -17 4 -5 -1 -9 -9 -9 -9 0 -16 -8 -16 -17 0 -15
-2 -15 -9 -4 -8 12 -12 12 -25 2 -9 -7 -14 -16 -12 -20 3 -4 -5 -8 -16 -8 -20
-2 -20 -1 -2 12 11 8 14 15 7 15 -6 0 -18 -8 -25 -17 -7 -10 -22 -18 -33 -17
-24 0 -55 -24 -55 -43 0 -8 -5 -11 -10 -8 -6 4 -7 12 -3 18 5 8 2 8 -9 0 -8
-7 -18 -10 -21 -6 -4 3 -7 1 -7 -6 0 -8 7 -11 15 -7 8 3 15 1 15 -4 0 -9 -8
-12 -27 -9 -3 0 -10 -6 -15 -15 -5 -9 -18 -16 -28 -16 -10 0 -22 -4 -25 -10
-3 -6 1 -7 12 -4 17 5 17 5 0 -6 -9 -6 -23 -8 -30 -4 -8 5 -8 2 2 -9 11 -14
11 -18 -3 -23 -9 -3 -23 -3 -32 0 -14 5 -15 4 -5 -8 9 -11 7 -15 -11 -21 -13
-4 -27 -7 -31 -6 -5 1 -6 -3 -2 -9 5 -8 11 -8 20 0 9 8 15 8 20 0 4 -6 3 -10
-2 -9 -17 4 -64 -21 -58 -32 4 -6 13 -8 21 -5 22 8 16 0 -12 -19 -15 -9 -23
-12 -20 -6 4 6 3 11 -2 11 -17 0 -22 -13 -9 -28 9 -13 9 -14 0 -8 -7 4 -13 3
-13 -3 0 -5 -9 -8 -20 -6 -12 2 -18 0 -15 -6 4 -5 11 -7 16 -4 5 4 9 1 9 -4 0
-10 -13 -15 -31 -13 -4 1 -5 -7 -2 -18 3 -11 10 -17 16 -13 6 4 7 1 3 -6 -5
-7 -10 -10 -13 -7 -9 9 -44 -14 -37 -25 3 -6 -5 -22 -17 -36 -13 -15 -19 -23
-13 -20 7 4 14 1 17 -7 4 -10 -1 -12 -16 -9 -13 3 -18 1 -12 -4 6 -4 11 -22
11 -40 0 -31 -1 -32 -19 -15 -15 13 -18 13 -15 2 2 -8 7 -18 12 -21 11 -8 -1
-29 -17 -29 -7 0 -6 4 3 10 8 5 10 10 4 10 -21 0 -23 -13 -6 -38 9 -15 12 -23
6 -19 -7 4 -15 0 -18 -9 -4 -10 -2 -13 7 -8 8 5 7 2 -2 -9 -9 -11 -10 -17 -2
-17 6 0 11 -5 11 -11 0 -5 -5 -7 -12 -3 -8 5 -9 0 -6 -14 4 -12 2 -20 -3 -16
-5 3 -9 1 -9 -5 0 -5 6 -11 13 -14 6 -2 8 -8 4 -13 -5 -5 -15 -1 -23 10 -8 11
-14 15 -14 9 0 -7 4 -14 9 -17 4 -3 5 -24 1 -46 -5 -29 -3 -45 8 -61 9 -12 11
-19 5 -16 -6 4 -13 -2 -16 -13 -3 -11 -1 -22 4 -25 4 -3 4 -16 -1 -30 -8 -20
-7 -23 8 -18 9 3 14 3 10 -2 -4 -4 -2 -15 4 -24 10 -13 10 -14 -2 -3 -21 19
-30 14 -21 -10 10 -28 3 -51 -11 -42 -7 4 -8 2 -4 -5 4 -6 12 -9 17 -6 5 4 9
-1 9 -10 0 -10 -5 -13 -12 -9 -7 5 -8 3 -3 -6 4 -7 2 -16 -6 -22 -11 -8 -10
-9 3 -5 20 7 33 -22 18 -37 -8 -8 -9 -6 -5 7 4 9 3 17 -3 17 -15 0 -8 -30 9
-41 13 -8 5 -13 -15 -10 -5 1 0 -13 11 -32 15 -25 17 -34 7 -34 -7 0 -11 4 -8
8 2 4 0 10 -5 14 -6 3 -8 -4 -6 -17 3 -12 -1 -26 -8 -31 -8 -6 -7 -7 5 -4 20
7 33 -22 18 -37 -8 -8 -9 -6 -5 7 4 9 3 17 -3 17 -15 0 -8 -30 9 -41 13 -8 6
-13 -14 -10 -4 1 0 -13 9 -31 16 -31 16 -32 0 -19 -14 12 -16 12 -10 -3 3 -9
1 -23 -5 -30 -9 -11 -9 -16 0 -22 7 -4 9 -3 5 4 -3 6 -2 13 3 16 5 3 11 -6 14
-20 3 -16 -1 -28 -9 -31 -10 -4 -11 -10 -4 -23 7 -13 6 -20 -6 -24 -14 -5 -14
-8 0 -27 10 -15 12 -28 6 -45 -8 -19 -6 -22 8 -17 9 3 14 3 10 -2 -4 -4 -2
-15 4 -24 10 -13 10 -14 -2 -3 -21 19 -30 14 -21 -10 10 -28 3 -51 -11 -42 -7
4 -8 2 -4 -5 4 -6 12 -9 17 -6 5 4 9 -1 9 -10 0 -10 -5 -13 -12 -9 -7 5 -8 3
-3 -6 4 -7 2 -16 -6 -22 -11 -8 -10 -9 3 -5 20 7 33 -22 18 -37 -8 -8 -9 -6
-5 7 4 9 3 17 -3 17 -15 0 -8 -30 9 -41 13 -8 6 -13 -14 -10 -4 1 0 -13 9 -31
16 -31 16 -32 0 -19 -14 12 -16 12 -10 -4 6 -14 4 -16 -6 -10 -9 5 -11 4 -6
-4 4 -6 11 -9 16 -6 4 3 10 -2 13 -10 4 -9 1 -12 -8 -9 -10 4 -13 -1 -9 -20 3
-17 0 -26 -8 -26 -10 0 -9 -3 1 -9 8 -5 12 -18 8 -30 -3 -12 -2 -19 3 -16 4 3
10 -2 13 -10 4 -9 1 -12 -7 -9 -8 3 -17 0 -22 -7 -5 -8 -3 -10 6 -4 10 6 12 3
7 -14 -3 -14 0 -24 9 -28 8 -3 11 -9 8 -14 -3 -5 -9 -7 -14 -4 -5 3 -12 0 -16
-6 -4 -7 -3 -9 2 -6 6 3 16 2 24 -4 12 -7 12 -9 -3 -9 -10 0 -15 -5 -12 -10 4
-6 11 -8 16 -5 5 3 6 -1 3 -9 -3 -9 -10 -14 -14 -11 -5 3 -12 0 -16 -6 -4 -8
-3 -9 4 -5 7 4 12 2 12 -4 0 -6 4 -8 10 -5 6 3 7 -1 4 -9 -3 -9 -11 -13 -17
-9 -6 4 -7 1 -2 -7 4 -7 2 -16 -6 -22 -11 -8 -10 -9 3 -5 20 7 33 -22 18 -37
-8 -8 -9 -6 -5 7 4 9 3 17 -3 17 -15 0 -8 -30 9 -41 13 -8 6 -13 -14 -10 -4 1
0 -13 9 -31 16 -31 16 -32 0 -19 -14 12 -16 12 -10 -3 3 -9 1 -23 -5 -30 -9
-11 -9 -16 0 -22 7 -4 9 -3 5 4 -3 6 -2 13 3 16 5 3 11 -6 14 -20 3 -16 -1
-28 -9 -31 -10 -4 -11 -10 -4 -23 7 -13 6 -20 -6 -24 -14 -5 -14 -8 0 -27 10
-15 12 -28 6 -45 -8 -19 -6 -22 8 -17 9 3 14 3 10 -2 -4 -4 -2 -15 4 -24 10
-13 10 -14 -2 -3 -21 19 -30 14 -21 -10 10 -28 3 -51 -11 -42 -7 4 -8 2 -4 -5
4 -6 12 -9 17 -6 5 4 9 -1 9 -10 0 -10 -5 -13 -12 -9 -7 5 -8 3 -3 -6 4 -7 2
-16 -6 -22 -11 -8 -10 -9 3 -5 20 7 33 -22 18 -37 -8 -8 -9 -6 -5 7 4 9 3 17
-3 17 -15 0 -8 -30 9 -41 13 -8 6 -13 -14 -10 -4 1 0 -13 9 -31 16 -31 16 -32
0 -19 -14 12 -16 12 -10 -4 6 -14 4 -16 -6 -10 -9 5 -11 4 -6 -4 4 -6 11 -9
16 -6 4 3 10 -2 13 -10 4 -9 1 -12 -8 -9 -10 4 -13 -1 -9 -20 3 -17 0 -26 -8
-26 -10 0 -9 -3 1 -9 8 -5 12 -18 8 -30 -3 -12 -2 -19 3 -16 4 3 10 -2 13 -10
4 -9 1 -12 -7 -9 -8 3 -17 0 -22 -7 -5 -8 -3 -10 6 -4 10 6 12 3 7 -14 -3 -14
0 -24 9 -28 8 -3 11 -9 8 -14 -3 -5 -9 -7 -14 -4 -5 3 -12 0 -16 -6 -4 -7 -3
-9 2 -6 6 3 16 2 24 -4 12 -7 12 -9 -3 -9 -10 0 -15 -5 -12 -10 4 -6 11 -8 16
-5 5 3 6 -1 3 -9 -3 -9 -10 -14 -14 -11 -5 3 -12 0 -16 -6 -4 -8 -3 -9 4 -5 7
4 12 2 12 -4 0 -6 5 -8 13 -4 9 6 9 5 0 -7 -18 -22 -19 -104 -2 -125 8 -10 9
-15 3 -11 -7 4 -14 -2 -17 -13 -3 -11 -1 -22 4 -25 4 -3 4 -16 -1 -30 -8 -20
-7 -23 8 -18 9 3 14 3 10 -2 -4 -4 -2 -15 4 -24 10 -13 10 -14 -2 -3 -21 19
-30 14 -21 -10 10 -28 3 -51 -11 -42 -7 4 -8 2 -4 -5 4 -6 10 -9 14 -7 4 2 7
-20 7 -49 0 -30 -4 -51 -9 -47 -5 3 -6 -3 -2 -13 5 -14 4 -16 -7 -7 -10 9 -17
8 -27 -1 -10 -9 -11 -9 -6 1 4 6 3 12 -1 12 -5 0 -15 -6 -22 -12 -11 -10 -13
-10 -7 0 9 15 1 15 -26 1 -15 -8 -19 -8 -14 0 8 13 -21 10 -43 -3 -10 -7 -12
-6 -6 4 6 10 4 12 -7 7 -9 -3 -21 0 -27 6 -9 9 -11 8 -6 -3 4 -11 -1 -16 -15
-16 -13 0 -19 5 -16 13 4 9 -4 7 -21 -4 -15 -10 -24 -12 -20 -5 9 14 -18 12
-42 -2 -10 -7 -12 -6 -6 4 6 10 4 12 -7 7 -9 -3 -21 0 -27 6 -9 9 -11 8 -6 -3
4 -11 -1 -16 -15 -16 -13 0 -19 5 -16 13 4 9 -4 7 -21 -4 -15 -10 -24 -12 -20
-5 9 14 -18 12 -42 -2 -10 -7 -12 -6 -6 4 6 10 4 12 -7 7 -9 -3 -21 0 -27 6
-9 9 -11 8 -6 -3 4 -11 -1 -16 -15 -16 -13 0 -19 5 -16 13 4 9 -4 7 -21 -4
-15 -10 -24 -12 -20 -5 9 14 -18 12 -42 -2 -10 -7 -12 -6 -6 4 6 10 4 12 -7 7
-9 -3 -21 0 -27 6 -9 9 -11 8 -6 -3 4 -11 -1 -16 -15 -16 -14 0 -19 5 -15 15
4 11 2 11 -8 3 -10 -9 -17 -8 -27 1 -9 8 -11 9 -6 0 3 -6 2 -14 -3 -18 -5 -3
-14 3 -20 12 -10 17 -10 17 -11 -2 0 -15 -2 -17 -9 -7 -9 15 -20 15 -38 1 -8
-7 -15 -4 -22 8 -10 17 -10 17 -11 -2 0 -11 -3 -16 -8 -10 -6 9 -46 13 -54 5
-8 -6 -65 -4 -61 3 6 9 -28 4 -46 -7 -10 -6 -12 -5 -7 2 10 16 -7 15 -23 0
-11 -10 -13 -10 -7 0 5 7 1 12 -9 12 -10 0 -13 -5 -9 -12 6 -10 4 -10 -7 -3
-12 9 -54 12 -69 5 -16 -7 -87 -4 -83 4 3 5 0 6 -8 4 -8 -3 -22 -1 -31 4 -13
6 -16 5 -13 -5 4 -8 -2 -13 -15 -13 -14 0 -19 5 -15 15 4 11 3 12 -10 1 -8 -7
-15 -9 -15 -6 0 4 -10 2 -21 -5 -15 -8 -19 -8 -15 0 8 13 -21 10 -43 -3 -10
-7 -12 -6 -6 4 6 10 4 12 -7 7 -9 -3 -21 0 -27 6 -9 9 -11 8 -6 -3 4 -11 -1
-16 -15 -16 -13 0 -19 5 -16 13 4 9 -4 7 -21 -4 -15 -10 -24 -12 -20 -5 9 14
-18 12 -42 -2 -10 -7 -12 -6 -6 4 6 10 4 12 -7 7 -9 -3 -21 0 -27 6 -9 9 -11
8 -6 -3 4 -11 -1 -16 -15 -16 -13 0 -19 5 -16 13 4 9 -4 7 -21 -4 -15 -10 -24
-12 -20 -5 9 14 -18 12 -42 -2 -10 -7 -12 -6 -6 4 6 10 4 12 -7 7 -9 -3 -21 0
-27 6 -9 9 -11 8 -6 -3 4 -11 -1 -16 -15 -16 -13 0 -19 5 -16 13 4 9 -4 7 -21
-4 -15 -10 -24 -12 -20 -5 9 14 -18 12 -42 -2 -10 -7 -12 -6 -6 4 6 10 4 12
-7 7 -9 -3 -21 0 -27 6 -9 9 -11 8 -6 -3 4 -11 -1 -16 -15 -16 -11 0 -19 5
-16 11 2 6 -4 11 -14 11 -10 0 -16 -4 -14 -8 3 -4 -4 -8 -16 -8 -13 0 -19 4
-14 12 4 7 3 8 -5 4 -6 -4 -9 -11 -6 -16 3 -4 -4 -10 -15 -13 -11 -3 -23 0
-27 5 -3 6 -1 8 5 4 6 -3 13 -2 16 3 7 10 -20 9 -30 -2 -4 -4 -14 -2 -21 5
-11 9 -17 9 -24 -3 -8 -12 -10 -12 -19 1 -6 10 -10 11 -10 3 0 -7 -6 -10 -14
-7 -7 3 -16 -2 -20 -11 -3 -9 -10 -13 -16 -10 -5 3 -10 1 -10 -4 0 -6 -5 -11
-11 -11 -5 0 -7 4 -4 10 3 6 -1 7 -9 4 -9 -3 -16 -11 -16 -18 0 -6 -5 -4 -10
4 -5 8 -10 11 -10 6 0 -5 -8 -2 -18 5 -13 10 -12 8 3 -10 l20 -24 -21 11 c-17
9 -25 8 -40 -4 -18 -14 -18 -15 2 -5 15 7 21 7 21 -3 0 -12 -43 -13 -75 -1
-10 4 -10 0 -1 -18 11 -19 10 -21 -3 -9 -13 10 -17 10 -22 0 -4 -10 -7 -10
-12 -1 -4 8 -10 7 -23 -5 -10 -9 -16 -20 -14 -24 2 -5 -3 -8 -11 -8 -9 0 -16
-5 -16 -11 0 -6 -9 -9 -20 -6 -11 3 -18 1 -15 -3 10 -16 -16 -22 -33 -8 -15
12 -16 11 -3 -5 16 -20 12 -27 -17 -30 -16 -1 -18 -4 -10 -14 8 -11 7 -12 -7
-6 -15 5 -17 3 -12 -12 6 -14 5 -16 -6 -7 -16 14 -28 6 -21 -13 3 -7 0 -16 -7
-21 -8 -5 -10 -3 -4 5 4 7 -4 5 -19 -4 -32 -21 -33 -29 -5 -20 19 6 20 5 8 -8
-8 -8 -19 -13 -25 -10 -15 5 -44 -24 -44 -44 0 -12 -3 -13 -13 -5 -10 9 -13 5
-11 -19 2 -26 0 -28 -14 -17 -14 12 -14 10 -3 -11 7 -13 9 -21 4 -18 -4 3 -14
-1 -21 -9 -12 -13 -8 -18 11 -15 5 1 6 -3 3 -8 -4 -5 -17 -8 -29 -5 -16 2 -24
-1 -24 -11 0 -8 4 -12 8 -9 4 2 11 -1 15 -7 4 -7 3 -9 -2 -6 -15 9 -37 -9 -42
-35 -2 -13 -5 -28 -6 -34 -1 -6 -10 -24 -21 -40 -10 -16 -18 -31 -16 -33 1 -2
-3 -8 -11 -12 -10 -7 -10 -9 2 -9 13 0 13 -1 0 -10 -11 -7 -11 -10 -2 -10 7 0
10 -5 7 -10 -4 -6 -10 -8 -14 -6 -4 3 -8 -1 -8 -9 0 -8 4 -12 9 -9 4 3 8 0 8
-5 0 -10 -13 -15 -31 -13 -4 1 -6 -95 -6 -213 0 -196 4 -234 22 -205 3 6 1 10
-6 10 -7 0 -10 3 -6 6 14 15 25 -8 17 -36 -5 -19 -5 -28 1 -25 5 4 10 1 10 -4
4 -35 2 -46 -10 -43 -7 1 -9 -2 -6 -8 4 -6 13 -9 21 -6 7 3 16 0 20 -6 4 -6 3
-8 -3 -5 -6 4 -13 -2 -16 -14 -4 -16 -3 -18 9 -8 11 9 14 7 14 -15 0 -19 4
-25 12 -20 8 5 7 0 -2 -11 -8 -10 -10 -16 -3 -12 7 5 16 -5 24 -27 7 -20 17
-32 23 -29 6 3 6 1 -1 -7 -8 -9 -6 -20 9 -46 11 -19 25 -31 31 -27 6 4 8 0 4
-10 -4 -12 -2 -14 11 -10 15 6 15 5 4 -10 -12 -14 -11 -16 8 -12 22 4 22 4 4
-18 -11 -12 -12 -17 -4 -10 11 8 18 8 27 -2 6 -7 9 -17 5 -21 -4 -5 1 -2 11 6
10 7 17 9 16 4 -3 -19 1 -34 12 -34 5 0 7 5 3 12 -4 7 -3 8 4 4 6 -4 9 -13 6
-21 -4 -8 -11 -12 -17 -8 -6 3 -7 1 -3 -6 6 -9 11 -9 24 1 13 11 15 10 9 -5
-4 -10 -3 -16 3 -12 9 6 33 -29 25 -37 -3 -3 2 -5 10 -5 12 0 12 3 2 16 -10
12 -9 13 1 7 7 -4 19 -22 27 -39 9 -18 13 -24 11 -15 -4 12 0 15 9 11 8 -3 12
-10 8 -16 -4 -6 0 -8 10 -4 8 3 21 -1 27 -8 7 -8 17 -12 22 -9 6 4 5 -4 -2
-16 -6 -12 -9 -24 -6 -28 3 -3 6 1 6 9 0 12 2 11 11 -1 9 -13 10 -12 5 2 -3
10 -1 20 5 23 5 4 9 3 8 -2 -1 -4 -1 -14 0 -22 1 -11 4 -11 18 0 9 8 14 9 10
3 -4 -7 0 -14 7 -17 8 -3 16 -1 19 6 2 6 6 4 10 -6 3 -9 1 -19 -5 -23 -7 -5
-8 -2 -3 6 6 9 4 11 -4 6 -15 -10 -7 -19 19 -21 11 -1 16 3 13 9 -8 13 28 -14
39 -29 5 -6 8 -5 8 3 0 6 5 12 11 12 6 0 8 -9 4 -20 -4 -12 -2 -20 5 -20 6 0
8 5 5 10 -3 6 1 10 10 10 10 0 13 -5 9 -12 -4 -7 -4 -10 1 -6 4 4 14 3 22 -4
11 -9 12 -7 6 8 -6 16 -4 17 8 7 9 -7 27 -10 42 -7 15 2 27 0 27 -5 0 -6 -9
-8 -20 -6 -11 2 -20 0 -20 -6 0 -5 11 -7 24 -5 14 2 32 -1 42 -9 14 -10 24
-10 43 -1 19 8 25 8 29 -2 2 -6 8 -12 13 -12 4 0 6 6 3 14 -3 8 0 17 7 22 8 4
10 3 5 -4 -10 -16 3 -34 17 -25 15 9 57 10 51 1 -6 -10 26 -5 45 6 9 6 12 5 8
-1 -4 -6 0 -14 9 -17 8 -3 12 -2 9 3 -3 5 -1 12 5 16 5 3 10 2 10 -4 0 -10 18
-10 37 2 6 4 15 2 19 -4 5 -8 3 -9 -6 -4 -9 6 -11 4 -5 -5 6 -10 11 -9 22 5 7
11 13 14 13 8 0 -12 18 -12 37 0 7 4 16 0 22 -10 10 -17 10 -17 11 2 0 17 2
18 11 5 7 -10 12 -11 15 -4 3 7 14 10 24 7 11 -3 17 -10 14 -17 -3 -6 2 -2 10
8 9 11 16 15 16 9 0 -13 18 -12 39 1 9 6 12 5 8 -1 -4 -6 0 -14 9 -17 8 -3 12
-2 9 3 -3 5 -1 12 5 16 5 3 10 2 10 -4 0 -10 18 -10 37 2 6 4 15 2 19 -4 5 -8
3 -9 -6 -4 -9 6 -11 4 -5 -5 6 -10 11 -9 22 5 7 11 13 14 13 8 0 -12 18 -12
37 0 7 4 16 0 22 -10 10 -17 10 -17 11 2 0 17 2 18 11 5 7 -10 12 -11 15 -4 3
7 14 10 24 7 11 -3 17 -10 14 -17 -3 -6 1 -3 8 6 13 15 15 15 26 0 7 -9 10
-12 7 -6 -2 7 2 15 11 18 12 5 15 2 10 -10 -5 -14 -4 -15 9 -4 8 7 15 9 15 5
0 -4 8 -1 17 6 11 10 14 10 9 2 -4 -7 -3 -13 1 -13 5 0 15 6 22 13 11 9 13 9
7 0 -5 -8 -1 -13 9 -13 10 0 13 5 9 12 -5 7 -3 8 7 3 18 -12 69 -14 75 -3 3 4
11 8 17 8 8 0 8 -3 -1 -9 -10 -6 -9 -10 7 -14 12 -3 19 -2 16 3 -3 4 2 11 11
14 12 5 15 2 10 -10 -5 -14 -4 -15 9 -4 8 7 15 9 15 5 0 -4 8 -1 17 6 9 8 14
9 10 3 -4 -7 5 -11 25 -12 24 -1 28 2 18 8 -8 6 -10 10 -4 10 6 0 14 -3 18 -7
10 -10 66 -11 72 -1 3 4 11 8 17 8 8 0 8 -3 -1 -9 -10 -6 -9 -10 7 -14 12 -3
19 -2 16 3 -3 4 2 11 11 14 12 5 15 2 10 -10 -5 -14 -4 -15 9 -4 8 7 15 9 15
5 0 -4 8 -1 17 6 11 10 14 10 9 2 -9 -17 6 -17 23 0 11 10 13 10 7 0 -5 -8 -1
-13 9 -13 10 0 13 5 9 13 -6 9 -4 9 7 2 17 -12 39 -13 58 -1 9 6 12 5 8 -1 -4
-6 0 -14 9 -17 8 -3 12 -2 9 3 -3 5 -1 12 5 16 5 3 10 2 10 -4 0 -10 18 -10
37 2 6 4 15 2 19 -4 5 -8 3 -9 -6 -4 -9 6 -11 4 -5 -5 6 -10 11 -9 22 5 7 11
13 14 13 8 0 -12 18 -12 37 0 7 4 16 0 22 -10 10 -17 10 -17 11 2 0 17 2 18
11 5 7 -10 12 -11 15 -4 3 7 14 10 24 7 11 -3 17 -10 14 -17 -3 -6 2 -2 10 8
9 11 16 15 16 9 0 -13 18 -12 39 1 9 6 12 5 8 -1 -4 -6 0 -14 9 -17 8 -3 12
-2 9 3 -3 5 -1 12 5 16 5 3 10 2 10 -4 0 -10 18 -10 37 2 6 4 15 2 19 -4 5 -8
3 -9 -6 -4 -9 6 -11 4 -5 -5 6 -10 11 -9 22 5 7 11 13 14 13 8 0 -12 18 -12
37 0 7 4 16 0 22 -10 10 -17 10 -17 11 2 0 17 2 18 11 5 7 -10 12 -11 15 -4 3
7 14 10 24 7 11 -3 17 -10 14 -17 -3 -6 2 -2 10 8 10 13 16 15 16 7 0 -11 3
-11 17 0 10 8 14 9 10 2 -9 -15 32 -14 52 1 11 8 13 8 7 -1 -7 -12 5 -18 27
-14 5 1 6 -3 2 -9 -3 -6 -11 -8 -16 -5 -5 3 -6 -1 -3 -9 3 -9 10 -13 15 -10 5
3 6 -2 3 -11 -5 -13 -9 -13 -23 -3 -11 8 -10 5 3 -10 14 -16 15 -22 6 -22 -11
0 -11 -3 -3 -11 8 -8 8 -20 3 -35 -8 -19 -6 -22 8 -17 9 3 14 3 10 -2 -4 -4
-2 -15 4 -24 10 -13 10 -14 -2 -3 -21 19 -30 14 -21 -10 10 -28 3 -51 -11 -42
-7 4 -8 2 -4 -5 4 -6 12 -8 18 -5 6 4 8 1 6 -7 -3 -8 -11 -13 -17 -11 -7 1
-10 -2 -6 -8 3 -6 10 -8 15 -5 4 3 10 -2 13 -10 4 -9 1 -12 -8 -9 -10 4 -13
-1 -9 -20 3 -17 0 -26 -8 -26 -10 0 -9 -3 1 -9 8 -5 12 -18 8 -30 -3 -12 -2
-19 3 -16 4 3 10 -2 13 -10 4 -9 1 -12 -7 -9 -8 3 -17 0 -22 -7 -5 -8 -3 -10
6 -4 10 6 12 3 7 -14 -3 -14 0 -24 9 -28 8 -3 11 -9 8 -14 -3 -5 -9 -7 -14 -4
-5 3 -12 0 -16 -6 -4 -7 -3 -9 2 -6 6 3 16 2 24 -4 12 -7 12 -9 -3 -9 -10 0
-15 -5 -12 -10 4 -6 11 -8 16 -5 5 3 6 -1 3 -9 -3 -9 -10 -14 -14 -11 -5 3
-12 0 -16 -6 -4 -8 -3 -9 4 -5 7 4 12 2 12 -4 0 -6 4 -8 10 -5 6 3 7 -1 4 -9
-3 -9 -11 -13 -17 -9 -6 4 -7 1 -2 -7 4 -7 2 -16 -6 -22 -11 -8 -10 -9 3 -5
20 7 33 -22 18 -37 -8 -8 -9 -6 -5 7 4 9 3 17 -3 17 -15 0 -8 -30 9 -41 13 -8
6 -13 -14 -10 -4 1 0 -13 9 -31 16 -31 16 -32 0 -19 -14 12 -16 12 -10 -3 3
-9 1 -23 -5 -30 -9 -11 -9 -16 0 -22 7 -4 9 -3 5 4 -3 6 -2 13 3 16 5 3 11 -6
14 -20 3 -16 -1 -28 -9 -31 -10 -4 -11 -10 -4 -23 7 -13 6 -20 -6 -24 -14 -5
-14 -8 0 -27 10 -15 12 -28 6 -45 -8 -19 -6 -22 8 -17 9 3 14 3 10 -2 -4 -4
-2 -15 4 -24 10 -13 10 -14 -2 -4 -21 20 -30 15 -21 -9 10 -28 3 -51 -11 -42
-7 4 -8 2 -4 -5 4 -6 12 -9 17 -6 5 4 9 -1 9 -10 0 -10 -5 -13 -12 -9 -7 5 -8
3 -3 -6 4 -7 2 -16 -6 -22 -11 -8 -10 -9 3 -5 20 7 33 -22 18 -37 -8 -8 -9 -6
-5 6 4 10 3 18 -3 18 -15 0 -8 -30 9 -41 13 -8 6 -13 -14 -10 -4 1 0 -13 9
-31 16 -31 16 -32 0 -19 -14 12 -16 12 -10 -4 6 -14 4 -16 -6 -10 -9 5 -11 4
-6 -4 4 -6 11 -9 16 -6 4 3 10 -2 13 -10 4 -9 1 -12 -8 -9 -10 4 -13 -1 -9
-20 3 -17 0 -26 -8 -26 -10 0 -9 -3 1 -9 8 -5 12 -18 8 -30 -3 -12 -2 -19 3
-16 4 3 10 -2 13 -10 4 -9 1 -12 -7 -9 -8 3 -17 0 -22 -7 -5 -8 -3 -10 6 -4
10 6 12 3 7 -14 -3 -14 0 -24 9 -28 8 -3 11 -9 8 -14 -3 -5 -9 -7 -14 -4 -5 3
-12 0 -16 -6 -4 -7 -3 -9 2 -6 6 3 16 2 24 -4 12 -7 12 -9 -3 -9 -10 0 -15 -5
-12 -10 4 -6 11 -8 16 -5 5 3 6 -1 3 -9 -3 -9 -10 -14 -14 -11 -5 3 -12 0 -16
-6 -4 -8 -3 -9 4 -5 7 4 12 2 12 -4 0 -6 4 -8 10 -5 6 3 7 -1 4 -9 -3 -9 -11
-13 -17 -9 -6 4 -7 1 -2 -7 4 -7 2 -16 -6 -22 -11 -8 -10 -9 3 -5 20 7 33 -22
18 -37 -8 -8 -9 -6 -5 7 4 9 3 17 -3 17 -15 0 -8 -30 9 -41 13 -8 6 -13 -14
-10 -4 1 0 -13 9 -31 16 -31 16 -32 0 -19 -14 12 -16 12 -10 -3 3 -9 1 -23 -5
-30 -9 -11 -9 -16 0 -22 7 -4 9 -3 5 4 -3 6 -2 13 3 16 5 3 11 -6 14 -20 3
-16 -1 -28 -9 -31 -10 -4 -11 -10 -4 -23 7 -13 6 -20 -6 -24 -14 -5 -14 -8 0
-27 10 -15 12 -28 6 -45 -8 -19 -6 -22 8 -17 9 3 14 3 10 -2 -4 -4 -2 -15 4
-24 10 -13 10 -14 -2 -4 -21 20 -30 15 -21 -10 10 -27 3 -50 -11 -41 -7 4 -8
2 -4 -5 4 -6 12 -9 17 -6 5 4 9 -1 9 -10 0 -10 -5 -13 -12 -9 -7 5 -8 3 -3 -6
4 -7 2 -16 -6 -22 -11 -8 -10 -9 3 -5 20 7 33 -22 18 -37 -8 -8 -9 -6 -5 6 4
10 3 18 -3 18 -15 0 -8 -30 9 -41 13 -8 5 -13 -15 -10 -5 1 0 -13 11 -32 15
-25 17 -34 7 -34 -7 0 -11 4 -8 8 2 4 0 10 -5 14 -6 3 -8 -4 -6 -17 3 -12 -1
-26 -8 -31 -8 -6 -7 -7 5 -4 20 7 33 -22 18 -37 -8 -8 -9 -6 -5 6 4 10 3 18
-3 18 -15 0 -8 -30 9 -41 13 -8 6 -13 -14 -10 -4 1 0 -13 9 -31 16 -31 16 -32
0 -19 -14 12 -16 12 -10 -3 3 -9 1 -23 -5 -30 -9 -11 -9 -16 0 -22 7 -4 9 -3
5 4 -3 6 -2 13 3 16 5 3 11 -6 14 -20 3 -16 -1 -28 -9 -31 -10 -4 -11 -10 -4
-23 7 -13 6 -20 -6 -24 -14 -5 -14 -8 0 -27 10 -15 12 -28 6 -45 -8 -19 -6
-22 8 -17 9 3 14 3 10 -2 -4 -4 -2 -15 4 -24 10 -13 10 -14 -2 -3 -21 19 -30
14 -21 -10 10 -28 3 -51 -11 -42 -7 4 -8 2 -4 -5 4 -6 12 -9 17 -6 5 4 9 -1 9
-10 0 -10 -5 -13 -12 -9 -7 5 -8 3 -3 -6 4 -7 2 -16 -6 -22 -11 -8 -10 -9 3
-5 20 7 33 -22 18 -37 -8 -8 -9 -6 -5 7 4 9 3 17 -3 17 -11 0 -10 -25 1 -36
13 -13 7 -23 -10 -17 -15 5 -14 3 2 -10 14 -12 16 -16 6 -17 -8 0 -11 -3 -8
-6 4 -4 13 -1 21 5 11 9 16 9 22 0 4 -7 3 -9 -3 -6 -5 4 -10 -6 -10 -23 0 -17
5 -27 10 -23 6 3 7 1 3 -6 -6 -9 -11 -9 -22 0 -16 13 -19 33 -4 24 6 -3 10 -1
10 4 0 6 -4 11 -9 11 -16 0 -23 -20 -12 -34 6 -7 7 -17 3 -21 -4 -5 -2 -6 3
-2 6 3 17 2 25 -3 13 -8 13 -11 1 -22 -10 -9 -12 -10 -7 -1 5 9 2 11 -9 6 -12
-4 -13 -8 -5 -13 8 -5 9 -13 4 -21 -6 -12 -5 -12 8 -1 10 8 19 9 22 3 4 -5 2
-12 -3 -16 -14 -8 -2 -36 13 -29 6 3 1 -3 -11 -14 -19 -17 -20 -21 -7 -26 8
-3 13 -10 10 -14 -3 -5 1 -9 9 -9 13 0 12 4 -2 19 -9 11 -11 18 -5 18 7 0 12
-5 12 -11 0 -5 4 -8 9 -5 10 7 9 -20 -2 -30 -13 -13 -7 -26 8 -20 20 7 19 -4
-2 -21 -10 -8 -13 -12 -6 -9 6 4 14 2 18 -3 3 -6 13 -8 23 -5 14 5 14 4 3 -4
-21 -15 -22 -39 -3 -54 13 -11 14 -11 7 2 -13 21 -15 41 -3 34 5 -3 7 -9 4
-12 -3 -3 -1 -11 5 -18 7 -8 7 -14 -1 -19 -7 -4 -7 -12 1 -26 8 -15 14 -18 24
-9 10 8 13 5 11 -15 0 -14 -5 -25 -10 -25 -5 0 -6 -3 -3 -6 4 -4 14 -1 24 7
11 9 14 10 9 2 -5 -9 -1 -13 10 -13 16 0 16 -1 -2 -15 -18 -13 -18 -14 6 -8
22 6 23 4 12 -9 -16 -20 3 -37 37 -32 l24 4 -24 -20 c-13 -10 -18 -19 -11 -20
6 0 12 5 12 11 0 5 4 8 10 4 5 -3 6 -13 3 -23 -6 -15 -5 -15 10 -3 18 14 20
10 18 -24 l-2 -20 17 20 c16 20 16 20 10 -2 -4 -12 -2 -24 5 -29 8 -5 9 -3 4
6 -6 9 -4 11 4 6 7 -5 10 -15 6 -23 -4 -13 -3 -14 9 -4 10 8 16 9 21 1 3 -6
12 -7 18 -4 8 5 8 3 -1 -7 -18 -19 -15 -28 8 -24 11 2 20 0 20 -6 0 -5 -5 -9
-12 -9 -6 0 -8 -3 -5 -6 4 -4 14 -1 24 7 14 12 16 12 8 0 -6 -11 -4 -13 10 -7
14 5 16 4 6 -7 -11 -14 -3 -20 62 -41 10 -3 16 -10 13 -15 -3 -5 4 -7 16 -3
14 3 19 2 14 -6 -7 -12 5 -16 32 -13 6 1 12 -3 12 -9 0 -5 9 -10 20 -10 11 0
20 5 20 10 0 6 5 10 11 10 8 0 8 -4 2 -12 -12 -16 -13 -49 -1 -42 5 3 6 9 3
14 -3 4 3 14 13 21 16 13 16 13 2 -5 -14 -18 -13 -19 8 -14 15 4 25 2 29 -8 3
-8 9 -11 14 -8 5 3 6 11 3 17 -4 7 4 2 18 -11 13 -12 28 -19 32 -15 4 4 10 2
14 -4 11 -18 64 -24 81 -10 8 7 12 7 8 1 -4 -7 14 -10 53 -10 32 0 57 3 54 7
-2 4 0 11 6 14 6 4 9 1 8 -7 -2 -10 13 -13 60 -13 34 -1 62 2 62 6 0 4 -8 6
-17 4 -21 -3 -43 12 -43 29 0 6 5 4 10 -4 11 -17 30 -20 47 -8 7 6 14 4 19 -3
5 -8 3 -9 -6 -4 -9 5 -11 4 -6 -4 11 -16 28 -2 22 18 -5 12 -2 11 9 -3 8 -11
15 -15 15 -8 0 6 6 9 14 6 8 -3 17 0 21 6 6 9 10 9 16 -1 6 -10 9 -11 9 -1 0
6 9 12 21 12 13 0 18 -4 13 -12 -4 -7 -3 -8 4 -4 6 4 9 13 5 22 -3 9 0 14 8
12 8 -2 13 2 12 9 -2 8 4 10 14 6 11 -4 13 -8 5 -11 -7 -2 -12 -8 -12 -14 0
-6 8 -4 18 4 9 9 24 13 32 10 13 -4 13 -3 2 10 -10 13 -10 18 -1 24 7 4 9 3 6
-3 -4 -6 0 -14 9 -17 8 -3 12 -2 9 4 -3 6 -1 10 5 10 6 0 8 4 5 10 -3 6 1 7
10 4 9 -4 15 -3 14 2 -3 20 2 23 27 14 17 -7 23 -7 19 0 -3 6 1 18 11 27 16
16 16 16 10 -7 -6 -25 -6 -25 5 -2 7 12 16 22 21 22 5 0 7 3 5 7 -3 5 2 14 10
22 13 12 14 11 8 -10 -6 -20 0 -16 33 18 22 23 42 41 44 40 2 -1 -4 4 -12 12
-16 15 -13 14 33 -4 10 -4 17 -3 17 5 0 6 -4 8 -10 5 -5 -3 -10 -1 -10 4 0 6
5 11 10 11 6 0 10 8 10 18 0 14 2 15 10 2 8 -13 10 -13 10 2 0 9 10 25 23 35
30 23 39 47 24 63 -9 10 -9 11 0 6 6 -3 14 -2 18 3 3 6 12 8 20 5 10 -4 13 2
10 27 -4 26 -2 29 8 18 7 -8 11 -12 10 -10 -2 2 5 10 15 18 9 8 11 11 3 7 -9
-4 -12 -2 -9 7 3 8 12 13 22 11 9 -2 16 2 16 8 0 6 -4 9 -9 5 -6 -3 -9 3 -8
14 1 14 5 17 12 11 12 -10 15 -1 16 43 0 9 4 15 9 12 5 -3 12 0 16 6 4 8 3 9
-4 5 -14 -8 -11 29 3 41 4 5 5 3 1 -4 -3 -6 -3 -14 2 -17 12 -7 12 26 0 41 -5
7 -5 14 2 18 6 3 8 11 5 16 -4 5 -3 15 2 22 4 6 8 18 10 26 1 8 6 17 11 20 17
12 22 44 10 59 -11 13 -10 15 6 9 14 -6 16 -5 8 5 -5 7 -9 33 -7 58 2 25 -2
51 -8 59 -8 10 -9 13 -1 8 7 -4 14 0 18 8 3 8 0 17 -6 21 -7 5 -8 2 -3 -6 5
-9 4 -11 -4 -6 -6 4 -8 12 -5 18 11 18 11 172 0 187 -9 12 -7 13 6 8 12 -4 15
-2 11 8 -3 8 -8 13 -12 11 -4 -3 -7 4 -7 14 0 15 3 17 15 7 11 -9 10 -4 -3 17
-17 27 -17 29 -1 22 13 -5 15 -3 8 6 -5 7 -13 22 -17 32 -6 17 -5 17 11 5 16
-13 16 -11 -1 15 -15 24 -16 28 -3 23 11 -4 14 -2 10 8 -3 8 -8 13 -12 11 -4
-3 -7 4 -7 14 0 15 3 17 15 7 11 -9 10 -4 -3 17 -17 27 -17 29 -1 22 13 -5 15
-3 8 6 -5 7 -13 22 -17 32 -6 17 -5 17 10 5 16 -13 16 -12 6 8 -7 13 -10 52
-8 100 3 49 0 83 -8 92 -8 11 -8 13 0 8 7 -4 14 0 18 8 3 8 0 17 -6 21 -7 5
-8 2 -3 -6 5 -9 4 -11 -4 -6 -6 4 -9 12 -5 17 11 19 11 183 0 198 -8 11 -8 13
0 8 7 -4 14 0 18 8 3 8 0 17 -6 21 -7 5 -8 2 -3 -6 5 -9 4 -11 -4 -6 -6 4 -8
12 -5 18 11 18 11 172 0 187 -9 12 -7 13 6 8 12 -4 15 -2 11 8 -3 8 -8 13 -12
11 -4 -3 -7 4 -7 14 0 15 3 17 15 7 11 -9 10 -4 -3 17 -17 27 -17 29 -1 22 13
-5 15 -3 8 6 -5 7 -13 22 -17 32 -6 17 -5 17 11 5 16 -13 16 -11 -1 15 -15 24
-16 28 -3 23 11 -4 14 -2 10 8 -3 8 -8 13 -12 11 -4 -3 -7 4 -7 14 0 15 3 17
15 7 11 -9 10 -4 -3 17 -17 27 -17 29 -1 22 13 -5 15 -3 8 6 -5 7 -13 22 -17
32 -6 17 -5 17 10 5 16 -13 16 -12 6 8 -7 13 -10 52 -8 100 3 49 0 83 -8 92
-8 11 -8 13 0 8 7 -4 14 0 18 8 3 8 0 17 -6 21 -7 5 -8 2 -3 -6 5 -9 4 -11 -4
-6 -6 4 -9 12 -5 17 11 19 11 183 0 198 -8 11 -8 13 0 8 7 -4 14 0 18 8 3 8 0
17 -6 21 -7 5 -8 2 -3 -6 5 -9 4 -11 -4 -6 -6 4 -8 12 -5 18 11 18 11 172 0
187 -9 12 -7 13 6 8 12 -4 15 -2 11 8 -3 8 -8 13 -12 11 -4 -3 -7 4 -7 14 0
15 3 17 15 7 11 -9 10 -4 -3 17 -17 27 -17 29 -1 22 13 -5 15 -3 8 6 -5 7 -13
22 -17 32 -6 17 -5 17 11 5 16 -13 16 -11 -1 15 -15 24 -16 28 -3 23 11 -4 14
-2 10 8 -3 8 -8 13 -12 11 -4 -3 -7 4 -7 14 0 15 3 17 15 7 11 -9 10 -4 -3 17
-17 27 -17 29 -1 22 13 -5 15 -3 8 6 -5 7 -13 22 -17 32 -6 17 -5 17 10 5 16
-13 16 -12 6 8 -7 13 -10 52 -8 100 3 49 0 83 -8 92 -8 11 -8 13 0 8 7 -4 15
0 18 9 3 8 2 12 -4 9 -6 -3 -9 4 -8 18 2 17 7 23 17 19 10 -4 12 -1 6 9 -7 11
-6 12 6 2 11 -9 19 -9 26 -2 8 8 13 7 18 -2 6 -8 4 -10 -5 -4 -9 6 -11 4 -5
-5 6 -10 11 -9 22 5 7 11 13 14 13 8 0 -12 18 -12 37 0 7 4 16 0 22 -10 10
-17 10 -17 11 2 0 17 2 18 11 5 7 -10 12 -11 15 -4 3 7 14 10 24 7 11 -3 17
-10 14 -17 -3 -6 1 -3 8 6 13 15 15 15 26 0 7 -9 10 -12 7 -6 -2 7 2 15 11 18
12 5 15 2 10 -10 -5 -14 -4 -15 9 -4 8 7 15 9 15 5 0 -4 8 -1 17 6 11 10 14
10 9 2 -4 -7 -3 -13 1 -13 5 0 15 6 22 13 11 10 13 10 7 0 -5 -8 -1 -13 9 -13
10 0 13 5 9 12 -5 7 -3 8 7 3 18 -12 69 -14 75 -3 3 4 11 8 17 8 8 0 8 -3 -1
-9 -10 -6 -9 -10 7 -14 12 -3 19 -2 16 3 -3 4 2 11 11 14 12 5 15 2 10 -10 -5
-14 -4 -15 9 -4 8 7 15 9 15 5 0 -4 8 -1 17 6 9 8 14 9 10 3 -4 -7 5 -11 25
-12 24 -1 28 2 18 8 -8 6 -10 10 -4 10 6 0 14 -3 18 -7 10 -10 66 -11 72 -1 3
4 11 8 17 8 8 0 8 -3 -1 -9 -10 -6 -9 -10 7 -14 12 -3 19 -2 16 3 -3 4 2 11
11 14 12 5 15 2 10 -10 -5 -14 -4 -15 9 -4 8 7 15 9 15 5 0 -4 8 -1 17 6 11
10 14 10 9 2 -4 -7 -3 -13 1 -13 5 0 15 6 22 13 11 10 13 10 7 0 -5 -8 -1 -13
9 -13 10 0 13 5 9 13 -6 9 -4 9 7 2 17 -12 39 -13 58 -1 9 6 12 5 8 -1 -4 -6
0 -14 9 -17 8 -3 12 -2 9 3 -3 5 -1 12 5 16 5 3 10 2 10 -4 0 -10 18 -10 37 2
6 4 15 2 19 -4 5 -8 3 -9 -6 -4 -9 6 -11 4 -5 -5 6 -10 11 -9 22 5 7 11 13 14
13 8 0 -12 18 -12 37 0 7 4 16 0 22 -10 10 -17 10 -17 11 2 0 17 2 18 11 5 7
-10 12 -11 15 -4 3 7 14 10 24 7 11 -3 17 -10 14 -17 -3 -6 1 -3 8 6 13 15 15
15 26 0 7 -9 10 -12 7 -6 -2 7 2 15 11 18 12 5 15 2 10 -10 -5 -14 -4 -15 9
-4 8 7 15 9 15 5 0 -4 8 -1 17 6 11 10 14 10 9 2 -4 -7 -3 -13 1 -13 5 0 15 6
22 13 11 10 13 10 7 0 -5 -8 -1 -13 9 -13 10 0 13 5 9 12 -5 7 -3 8 7 3 18
-12 69 -14 75 -3 3 4 11 8 17 8 8 0 8 -3 -1 -9 -10 -6 -9 -10 7 -14 12 -3 19
-2 16 3 -3 4 2 11 11 14 12 5 15 2 10 -10 -5 -14 -4 -15 9 -4 8 7 15 9 15 5 0
-4 8 -1 17 6 9 8 14 9 10 3 -4 -7 5 -11 25 -12 24 -1 28 2 18 8 -8 6 -10 10
-4 10 6 0 14 -3 18 -7 10 -10 66 -11 72 -1 3 4 11 8 17 8 8 0 8 -3 -1 -9 -10
-6 -9 -10 7 -14 12 -3 19 -2 16 3 -3 4 2 11 11 14 12 5 15 2 10 -10 -5 -14 -4
-15 9 -4 8 7 15 9 15 5 0 -4 8 -1 17 6 11 10 14 10 9 2 -9 -17 6 -17 23 -1 11
10 13 10 7 1 -5 -8 -1 -13 9 -13 10 0 13 5 9 13 -6 9 -4 9 7 2 17 -12 39 -13
58 -1 9 6 12 5 8 -1 -4 -6 0 -14 9 -17 8 -3 12 -2 9 3 -3 5 -1 12 5 16 5 3 10
2 10 -4 0 -10 18 -10 37 2 6 4 15 2 19 -4 5 -8 3 -9 -6 -4 -9 6 -11 4 -5 -5 6
-10 11 -9 22 5 7 11 13 14 13 8 0 -12 18 -12 37 0 7 4 16 0 22 -10 10 -17 10
-17 11 2 0 17 2 18 11 5 7 -10 12 -11 15 -4 3 7 14 10 24 7 11 -3 17 -10 14
-17 -3 -6 1 -3 8 6 13 15 15 15 26 0 7 -9 10 -12 7 -6 -2 7 2 15 11 18 12 5
15 2 10 -10 -5 -14 -4 -15 9 -4 8 7 15 9 15 5 0 -4 8 -1 17 6 11 10 14 10 9 2
-9 -17 6 -17 23 -1 11 10 13 10 7 1 -5 -8 -1 -13 9 -13 10 0 13 5 9 12 -5 7
-3 8 7 3 18 -12 69 -14 75 -3 3 4 11 8 17 8 8 0 8 -3 -1 -9 -10 -6 -9 -10 7
-14 12 -3 19 -2 16 3 -3 4 2 11 11 14 12 5 15 2 10 -10 -5 -14 -4 -15 9 -4 8
7 15 9 15 5 0 -4 8 -1 17 6 9 8 14 9 10 3 -4 -7 5 -11 25 -12 24 -1 28 2 18 8
-8 6 -10 10 -4 10 6 0 14 -3 18 -7 10 -10 66 -11 72 -1 3 4 11 8 17 8 8 0 8
-3 -1 -9 -10 -6 -9 -10 7 -14 12 -3 19 -2 16 3 -3 4 2 11 11 14 12 5 15 2 10
-10 -5 -14 -4 -15 9 -4 8 7 15 9 15 5 0 -4 8 -1 17 6 11 10 14 10 9 2 -4 -7
-3 -13 1 -13 5 0 15 6 22 13 11 10 13 10 7 0 -5 -8 -1 -13 9 -13 10 0 13 5 9
12 -5 7 -3 8 7 3 18 -12 69 -14 75 -3 3 4 11 8 17 8 8 0 8 -3 -1 -9 -10 -6 -9
-10 7 -14 12 -3 19 -2 16 3 -3 4 2 11 11 14 12 5 15 2 10 -10 -5 -14 -4 -15 9
-4 8 7 15 9 15 5 0 -4 8 -1 17 6 9 8 14 9 10 3 -4 -7 5 -11 25 -12 24 -1 28 2
18 8 -8 6 -10 10 -4 10 6 0 14 -3 18 -7 10 -10 66 -11 72 -1 3 4 11 8 17 8 7
0 6 -4 -3 -10 -11 -7 -5 -9 22 -7 21 2 41 6 44 10 4 4 12 7 18 7 6 0 5 -4 -2
-9 -10 -6 -9 -10 7 -14 12 -3 19 -2 16 3 -3 4 2 11 11 14 12 5 15 2 10 -10 -5
-14 -4 -15 9 -4 8 7 15 9 15 5 0 -4 8 -1 17 6 9 8 14 9 10 3 -4 -7 5 -11 25
-12 24 -1 28 2 18 8 -8 6 -10 10 -4 10 6 0 14 -3 18 -7 10 -10 66 -11 72 -1 3
4 11 8 17 8 7 0 6 -4 -3 -10 -11 -7 -5 -9 22 -7 21 2 41 6 44 10 4 4 12 7 18
7 6 0 5 -4 -2 -9 -10 -6 -9 -10 7 -14 12 -3 19 -2 16 3 -3 4 2 11 11 14 12 5
15 2 10 -10 -5 -14 -4 -15 9 -4 8 7 15 9 15 5 0 -4 8 -1 17 6 9 8 14 9 10 3
-4 -7 5 -11 25 -12 24 -1 28 2 18 8 -8 6 -10 10 -4 10 6 0 14 -3 18 -7 10 -10
66 -11 72 -1 3 4 11 8 17 8 7 0 6 -4 -3 -10 -11 -7 -5 -9 22 -7 21 2 41 6 44
10 4 4 12 7 18 7 6 0 5 -4 -2 -9 -10 -6 -9 -10 7 -14 12 -3 19 -2 16 3 -3 4 2
11 11 14 12 5 15 2 10 -10 -5 -14 -4 -15 9 -4 8 7 15 9 15 5 0 -4 8 -1 17 6 9
8 14 9 10 3 -4 -7 5 -11 25 -12 24 -1 28 2 18 8 -8 6 -10 10 -4 10 6 0 14 -3
18 -7 10 -10 66 -11 72 -1 3 4 11 8 17 8 8 0 8 -3 -1 -9 -10 -6 -9 -10 7 -14
12 -3 19 -2 16 3 -3 4 2 11 11 14 12 5 15 2 10 -10 -5 -14 -4 -15 9 -4 8 7 15
9 15 5 0 -4 8 -1 17 6 11 10 14 10 9 2 -9 -17 6 -17 23 -1 11 10 13 10 7 1 -5
-8 -1 -13 9 -13 10 0 13 5 9 12 -5 7 -3 8 7 3 18 -12 69 -14 75 -3 3 4 11 8
17 8 8 0 8 -3 -1 -9 -10 -6 -9 -10 7 -14 12 -3 19 -2 16 3 -3 4 2 11 11 14 12
5 15 2 10 -10 -5 -14 -4 -15 9 -4 8 7 15 9 15 5 0 -4 8 -1 17 6 9 8 14 9 10 3
-4 -7 5 -11 25 -12 24 -1 28 2 18 8 -8 6 -10 10 -4 10 6 0 14 -3 18 -7 10 -10
66 -11 72 -1 3 4 11 8 17 8 7 0 6 -4 -3 -10 -13 -9 -13 -10 1 -10 8 0 21 6 28
12 9 8 11 8 8 2 -4 -7 0 -15 9 -18 8 -3 13 -2 10 3 -3 5 1 12 10 15 24 9 31 7
14 -5 -12 -9 -12 -10 4 -5 11 4 23 2 26 -4 5 -8 9 -6 13 5 4 9 3 14 -1 11 -5
-3 -9 1 -9 9 0 10 4 12 12 5 7 -6 16 -5 25 3 11 9 10 7 0 -7 -14 -18 -13 -18
9 -11 18 5 22 4 15 -6 -6 -12 -5 -12 9 0 19 15 23 26 5 15 -7 -5 -8 -3 -4 5 5
7 10 10 14 7 3 -3 11 2 19 12 8 9 12 11 8 5 -3 -7 -1 -21 5 -30 11 -17 11 -17
6 0 -5 15 -2 17 16 11 18 -5 20 -3 14 12 -6 15 -5 16 5 7 8 -8 18 -9 31 -2 11
6 18 6 18 0 0 -5 10 -4 24 2 13 7 22 15 20 19 -3 5 1 8 10 8 8 0 22 3 32 7 13
5 15 3 9 -8 -5 -8 1 -5 14 5 12 11 19 26 16 35 -4 10 1 9 16 -5 12 -10 19 -13
15 -6 -9 15 10 42 30 42 8 0 11 -7 8 -18 -5 -13 -4 -14 4 -3 6 8 7 21 4 30 -5
14 -4 14 13 1 17 -14 18 -13 12 3 -6 15 -4 16 16 6 l22 -12 -20 22 -19 22 26
-10 c21 -8 29 -6 40 7 12 15 11 16 -4 3 -12 -9 -18 -10 -18 -2 0 18 31 26 41
10 5 -8 9 -9 9 -3 0 5 -6 16 -12 23 -10 11 -10 13 0 7 6 -4 12 -2 12 3 0 6 5
11 11 11 5 0 7 -5 3 -12 -5 -7 -3 -8 5 -4 7 5 10 10 7 13 -2 3 7 16 21 29 14
13 22 24 18 24 -4 0 -2 6 4 13 6 8 8 17 4 21 -4 4 0 4 9 1 26 -10 42 4 26 23
-10 12 -10 14 0 8 7 -4 12 -2 12 4 0 6 3 9 8 7 12 -8 27 16 26 40 -1 19 2 21
17 12 13 -6 19 -6 19 1 0 5 -4 10 -8 10 -5 0 -9 7 -9 15 0 11 4 12 14 3 7 -6
16 -8 20 -4 3 3 2 6 -4 6 -5 0 -10 7 -10 15 0 8 4 12 9 9 4 -3 8 2 8 11 0 9 4
13 10 10 6 -4 7 1 3 11 -5 13 -3 15 7 9 10 -6 11 -4 4 6 -9 15 -15 39 -9 39 2
0 12 -8 21 -17 16 -16 17 -16 12 -1 -4 9 -4 19 0 21 4 2 1 2 -6 1 -9 -3 -10 1
-2 16 6 11 8 26 4 33 -5 6 1 5 11 -3 17 -14 18 -14 6 9 -11 19 -11 22 0 16 9
-6 10 -3 5 10 -5 15 -4 16 8 6 13 -11 14 -8 6 18 -6 20 -5 33 2 37 6 4 8 2 4
-4 -3 -6 -3 -13 2 -16 4 -2 8 6 8 19 0 13 -2 22 -5 20 -4 -2 -6 12 -6 31 0 20
7 39 15 44 10 6 11 10 3 10 -7 0 -10 7 -7 15 4 8 10 15 16 15 5 0 7 -4 4 -8
-2 -4 -1 -13 2 -20 4 -6 7 47 7 118 0 70 -4 126 -8 123 -4 -2 -6 7 -3 21 3 14
0 28 -5 32 -6 3 -5 12 3 22 11 15 11 15 -4 4 -11 -9 -18 -10 -23 -2 -3 5 0 10
7 10 9 0 9 3 -2 10 -11 7 -11 10 -2 10 8 0 6 8 -7 22 -11 11 -18 25 -15 30 3
5 -2 18 -12 29 -24 27 -10 24 17 -3 l21 -23 -11 22 c-6 12 -21 30 -34 39 -12
9 -15 14 -6 11 10 -3 16 1 16 10 0 9 -7 13 -19 10 -16 -5 -17 -3 -7 9 9 11 8
14 -2 14 -11 0 -11 2 1 10 12 8 11 10 -7 10 -13 0 -23 5 -23 11 0 5 5 7 10 4
6 -3 10 -2 10 4 0 5 -9 12 -19 16 -13 4 -18 12 -14 22 4 10 2 14 -4 10 -7 -5
-9 0 -6 13 3 11 0 20 -6 20 -6 0 -11 7 -11 16 0 8 -4 13 -9 10 -11 -7 -23 22
-15 35 3 5 -2 12 -10 15 -9 3 -14 9 -11 13 2 4 -3 8 -12 8 -12 0 -11 -5 7 -19
12 -10 18 -18 13 -18 -13 0 -43 34 -43 49 0 7 5 9 12 5 7 -4 8 -3 4 5 -4 6
-11 9 -14 7 -4 -2 -18 2 -32 10 -14 7 -20 14 -15 14 6 0 -1 8 -15 16 -14 8
-17 13 -8 10 12 -3 15 -1 12 9 -3 8 -9 14 -12 13 -24 -3 -34 4 -29 21 4 16 0
18 -19 15 -13 -2 -24 -1 -23 3 3 21 -2 24 -18 12 -15 -13 -15 -12 -3 11 12 23
12 24 -3 11 -13 -10 -17 -10 -17 -1 0 10 -3 10 -14 1 -12 -10 -13 -8 -8 11 5
20 3 21 -10 10 -13 -10 -18 -10 -24 -1 -4 8 -3 9 4 5 7 -4 12 -2 12 5 0 7 -8
9 -21 6 -17 -5 -18 -3 -7 10 11 14 11 15 -7 6 -22 -11 -45 -7 -45 9 0 6 8 5
18 -3 15 -12 16 -12 5 2 -7 9 -9 19 -5 24 4 4 -3 1 -15 -6 -21 -12 -24 -11
-39 9 l-16 23 -27 -23 c-14 -12 -20 -16 -13 -8 6 8 12 21 12 30 -1 13 -3 12
-14 -2 -12 -17 -14 -16 -24 5 -6 12 -11 16 -11 8 -1 -11 -5 -10 -17 5 -13 15
-15 16 -10 2 3 -12 1 -15 -9 -11 -8 3 -12 9 -9 14 3 5 -3 6 -12 2 -13 -5 -15
-3 -9 8 5 8 -2 5 -15 -6 -13 -11 -20 -15 -17 -8 5 8 -3 11 -28 9 -30 -3 -33
-1 -23 11 8 10 14 11 16 4 5 -15 19 -14 19 2 0 7 -12 13 -28 12 -15 0 -25 -3
-22 -7 2 -5 -3 -8 -12 -8 -9 0 -14 4 -11 8 3 5 -1 9 -9 9 -8 0 -12 -4 -10 -8
3 -4 -2 -9 -10 -12 -9 -4 -12 -1 -9 8 4 10 0 13 -15 10 -12 -2 -26 -7 -33 -11
-7 -4 -8 -3 -4 4 10 16 -7 15 -23 0 -11 -10 -13 -10 -7 0 5 7 1 12 -9 12 -10
0 -13 -5 -9 -12 5 -7 3 -8 -7 -3 -18 12 -69 14 -75 4 -3 -5 -15 -5 -27 -1 -19
7 -42 8 -49 2 -8 -6 -65 -4 -61 3 6 9 -28 4 -46 -7 -10 -6 -12 -5 -7 2 10 16
-7 15 -23 0 -11 -10 -13 -10 -7 0 5 7 1 12 -9 12 -10 0 -13 -5 -9 -12 5 -7 3
-8 -7 -2 -18 11 -61 12 -75 2 -5 -4 -22 -1 -37 7 -15 8 -25 10 -22 5 3 -5 1
-11 -4 -15 -5 -3 -14 3 -20 12 -10 17 -10 17 -11 -2 0 -11 -3 -16 -8 -10 -8
12 -22 13 -39 2 -7 -4 -16 0 -22 10 -10 17 -10 17 -11 -2 0 -11 -3 -16 -8 -10
-6 9 -46 13 -54 5 -8 -6 -65 -4 -61 3 6 9 -28 4 -46 -7 -10 -6 -12 -5 -7 2 10
16 -7 15 -23 0 -11 -10 -13 -10 -7 0 5 7 1 12 -9 12 -10 0 -13 -5 -9 -12 6
-10 4 -10 -7 -3 -12 9 -54 12 -69 5 -16 -7 -87 -4 -83 4 3 5 0 6 -8 4 -8 -3
-22 -1 -31 4 -13 6 -16 5 -13 -5 4 -8 -2 -13 -15 -13 -14 0 -19 5 -15 15 4 10
2 11 -7 4 -15 -11 -28 -11 -47 1 -9 6 -12 5 -7 -2 3 -6 2 -13 -3 -17 -5 -3
-14 3 -20 12 -10 17 -10 17 -11 -2 0 -11 -3 -16 -8 -10 -8 12 -22 13 -39 2 -7
-4 -16 0 -22 10 -10 17 -10 17 -11 -2 0 -11 -3 -16 -8 -10 -6 9 -46 13 -54 5
-8 -6 -65 -4 -61 3 6 9 -28 4 -46 -7 -10 -6 -12 -5 -7 2 10 16 -7 15 -23 0
-11 -10 -13 -10 -7 0 5 7 1 12 -9 12 -10 0 -13 -5 -9 -12 6 -10 4 -10 -7 -3
-12 9 -54 12 -69 5 -16 -7 -87 -4 -83 4 3 5 0 6 -8 4 -8 -3 -22 -1 -31 4 -13
6 -16 5 -13 -5 4 -8 -2 -13 -15 -13 -13 0 -19 5 -15 14 3 8 0 10 -8 5 -6 -4
-24 -8 -39 -9 -16 -1 -29 -2 -30 -4 -8 -6 -65 -4 -61 3 6 9 -28 4 -46 -7 -10
-6 -12 -5 -7 2 10 16 -7 15 -23 -1 -11 -9 -13 -9 -7 1 5 7 1 12 -9 12 -10 0
-13 -5 -9 -12 5 -7 3 -8 -7 -3 -18 12 -69 14 -75 4 -3 -5 -15 -5 -27 -1 -19 7
-42 8 -49 2 -8 -6 -65 -4 -61 3 6 9 -28 4 -46 -7 -10 -6 -12 -5 -7 2 10 16 -7
15 -23 0 -11 -10 -13 -10 -7 0 5 7 1 12 -9 12 -10 0 -13 -5 -9 -12 6 -10 4
-10 -7 -3 -12 9 -53 12 -69 5 -15 -6 -67 -4 -63 3 6 9 -28 4 -46 -7 -10 -7
-12 -6 -6 4 6 10 4 12 -7 7 -9 -3 -21 0 -27 6 -9 9 -11 8 -6 -3 4 -11 -1 -16
-15 -16 -13 0 -19 5 -16 13 4 9 -4 7 -21 -4 -15 -10 -24 -12 -20 -5 9 14 -18
12 -42 -2 -10 -7 -12 -6 -6 4 6 10 4 12 -7 7 -9 -3 -21 0 -27 6 -9 9 -11 8 -6
-3 4 -11 -1 -16 -15 -16 -14 0 -19 5 -15 15 4 11 2 11 -8 3 -10 -9 -17 -8 -27
1 -9 8 -11 9 -6 0 3 -6 2 -14 -3 -18 -5 -3 -14 3 -20 12 -10 17 -10 17 -11 -2
0 -15 -2 -17 -9 -7 -11 19 -15 19 -34 4 -13 -11 -17 -10 -26 5 -10 17 -10 17
-11 -2 0 -11 -3 -16 -8 -10 -6 9 -46 13 -54 5 -8 -6 -65 -4 -61 3 6 9 -28 4
-46 -7 -10 -6 -12 -5 -7 2 10 16 -7 15 -23 0 -11 -10 -13 -10 -7 0 5 7 1 12
-9 12 -10 0 -13 -5 -9 -12 6 -10 4 -10 -7 -3 -12 9 -54 12 -69 5 -16 -7 -87
-4 -83 4 3 5 0 6 -8 4 -8 -3 -22 -1 -31 4 -13 6 -16 5 -13 -5 4 -8 -2 -13 -15
-13 -14 0 -19 5 -15 15 4 11 3 12 -10 1 -8 -7 -15 -9 -15 -6 0 4 -10 2 -21 -5
-15 -8 -19 -8 -15 0 8 13 -21 10 -43 -3 -10 -7 -12 -6 -6 4 6 10 4 12 -7 7 -9
-3 -21 0 -27 6 -9 9 -11 8 -6 -3 4 -11 -1 -16 -15 -16 -13 0 -19 5 -16 13 4 9
-4 7 -21 -4 -15 -10 -24 -12 -20 -5 9 14 -18 12 -42 -2 -10 -7 -12 -6 -6 4 6
10 4 12 -7 7 -9 -3 -21 0 -27 6 -9 9 -11 8 -6 -3 4 -11 -1 -16 -15 -16 -13 0
-19 5 -15 14 3 8 0 10 -8 5 -6 -4 -20 -8 -29 -9 -10 -1 -19 -2 -20 -4 -8 -6
-65 -4 -61 3 6 9 -28 4 -46 -7 -10 -6 -12 -5 -7 2 10 16 -7 15 -23 0 -11 -10
-13 -10 -7 0 5 7 1 12 -9 12 -10 0 -13 -5 -9 -12 5 -7 3 -8 -7 -3 -18 12 -69
14 -75 4 -3 -5 -15 -5 -27 -1 -19 7 -42 8 -49 2 -8 -6 -65 -4 -61 3 6 9 -28 4
-46 -7 -10 -6 -12 -5 -7 2 10 16 -7 15 -23 0 -11 -10 -13 -10 -7 0 5 7 1 12
-9 12 -10 0 -13 -5 -9 -12 6 -10 4 -10 -7 -3 -12 9 -53 12 -69 5 -15 -6 -67
-4 -63 3 6 9 -28 4 -46 -7 -10 -7 -12 -6 -6 4 6 10 4 12 -7 7 -9 -3 -21 0 -27
6 -9 9 -11 8 -6 -3 4 -11 -1 -16 -15 -16 -13 0 -19 5 -16 13 4 9 -4 7 -21 -4
-15 -10 -24 -12 -20 -5 9 14 -18 12 -42 -2 -10 -7 -12 -5 -6 4 5 9 2 10 -12 6
-14 -4 -19 -1 -20 14 -1 12 3 18 9 14 5 -4 3 5 -7 19 -15 24 -15 26 2 36 10 6
13 11 6 11 -8 0 -11 15 -8 47 2 27 -1 53 -8 62 -8 10 -8 13 -1 8 7 -4 14 0 18
8 3 8 0 17 -6 21 -7 5 -8 2 -3 -6 5 -9 4 -11 -4 -6 -6 4 -8 12 -5 18 11 18 11
172 0 187 -9 12 -7 13 6 8 12 -4 15 -2 11 8 -3 8 -8 13 -12 11 -4 -3 -7 4 -7
14 0 15 3 17 15 7 11 -9 10 -4 -3 17 -17 27 -17 29 -1 22 13 -5 15 -3 8 6 -5
7 -13 22 -17 32 -6 17 -5 17 11 5 16 -13 16 -11 -1 15 -15 24 -16 28 -3 23 11
-4 14 -2 10 8 -3 8 -8 13 -12 11 -4 -3 -7 4 -7 14 0 15 3 17 15 7 11 -9 10 -4
-3 17 -17 27 -17 29 -1 22 13 -5 15 -3 8 6 -5 7 -13 22 -17 32 -6 17 -5 17 10
5 16 -13 16 -12 6 8 -7 13 -10 52 -8 100 3 49 0 83 -8 92 -8 11 -8 13 0 8 7
-4 14 0 18 8 3 8 0 17 -6 21 -7 5 -8 2 -3 -6 5 -9 4 -11 -4 -6 -6 4 -9 12 -5
17 11 19 11 183 0 198 -8 11 -8 13 0 8 7 -4 14 0 18 8 3 8 0 17 -6 21 -7 5 -8
2 -3 -6 5 -9 4 -11 -4 -6 -6 4 -8 12 -5 18 11 18 11 172 0 187 -9 12 -7 13 6
8 12 -4 15 -2 11 8 -3 8 -8 13 -12 11 -4 -3 -7 4 -7 14 0 15 3 17 15 7 11 -9
10 -4 -3 17 -17 27 -17 29 -1 22 13 -5 15 -3 8 6 -5 7 -13 22 -17 32 -6 17 -5
17 11 5 16 -13 16 -11 -1 15 -15 24 -16 28 -3 23 11 -4 14 -2 10 8 -3 8 -8 13
-12 11 -4 -3 -7 4 -7 14 0 15 3 17 15 7 11 -9 10 -4 -3 17 -17 27 -17 29 -1
22 13 -5 15 -3 8 6 -5 7 -13 22 -17 32 -6 17 -5 17 10 5 16 -13 16 -12 6 8 -7
13 -10 52 -8 100 3 49 0 83 -8 92 -8 11 -8 13 0 8 7 -4 14 0 18 8 3 8 0 17 -6
21 -7 5 -8 2 -3 -6 5 -9 4 -11 -4 -6 -6 4 -9 12 -5 17 11 19 11 183 0 198 -8
11 -8 13 0 8 7 -4 14 0 18 8 3 8 0 17 -6 21 -7 5 -8 2 -3 -6 5 -9 4 -11 -4 -6
-6 4 -8 12 -5 18 11 18 11 172 0 187 -9 12 -7 13 6 8 12 -4 15 -2 11 8 -3 8
-8 13 -12 11 -4 -3 -7 4 -7 14 0 15 3 17 15 7 11 -9 10 -4 -3 17 -17 27 -17
29 -1 22 13 -5 15 -3 8 6 -5 7 -13 22 -17 32 -6 17 -5 17 11 5 16 -13 16 -11
-1 15 -15 24 -16 28 -3 23 11 -4 14 -2 10 8 -3 8 -8 13 -12 11 -4 -3 -7 4 -7
14 0 15 3 17 15 7 11 -9 10 -4 -3 17 -17 27 -17 29 -1 22 13 -5 15 -3 8 6 -5
7 -13 22 -17 32 -6 17 -5 17 10 5 16 -13 16 -12 5 9 -7 13 -11 33 -9 45 1 12
-1 27 -5 33 -4 7 0 17 8 24 15 13 9 44 -7 34 -6 -4 -5 2 1 14 14 27 14 35 -1
26 -7 -4 -10 -4 -6 1 4 4 2 15 -5 24 -10 14 -10 14 5 3 12 -10 18 -10 24 -1 4
8 3 9 -4 5 -11 -6 -17 12 -13 37 2 13 -11 8 -26 -10 -13 -16 -13 -16 -4 4 6
12 8 30 5 40 -4 13 -3 14 4 5 7 -11 10 -11 15 2 4 9 1 15 -6 13 -7 -1 -11 4
-10 11 2 6 -1 12 -5 12 -13 0 -12 44 1 52 7 5 4 7 -10 6 -12 -2 -21 0 -20 3 1
3 -5 14 -13 25 -14 18 -14 18 2 5 10 -7 15 -18 11 -24 -3 -6 -1 -7 5 -3 9 5 8
12 -1 26 -6 11 -15 20 -19 20 -10 0 -6 29 6 50 7 12 6 13 -5 3 -18 -18 -34
-16 -19 2 7 8 11 15 9 16 -2 0 -12 2 -22 4 -27 5 -34 15 -11 15 15 0 16 2 4 9
-8 6 -18 7 -22 5 -8 -5 -12 23 -10 61 2 18 1 18 -8 3 -6 -10 -17 -15 -26 -11
-13 5 -12 7 2 18 14 9 14 14 4 20 -9 6 -11 4 -5 -5 6 -9 4 -11 -4 -6 -7 5 -10
14 -7 21 7 21 -18 37 -33 22 -11 -10 -12 -7 -6 12 5 18 4 22 -6 16 -9 -6 -11
-4 -6 8 4 11 1 15 -13 12 -11 -2 -23 1 -26 7 -4 7 -2 8 4 4 7 -4 12 -2 12 3 0
6 -7 11 -16 11 -8 0 -12 5 -9 10 3 6 -4 10 -16 10 -18 0 -20 2 -9 16 11 12 11
15 -1 12 -8 -2 -17 -7 -21 -13 -4 -5 -8 -1 -8 10 0 11 -9 26 -21 33 -17 11
-20 11 -14 0 4 -7 -7 3 -25 22 -18 19 -29 28 -24 20 6 -12 5 -13 -8 -3 -8 7
-19 9 -23 5 -5 -4 -5 1 -2 10 3 10 1 20 -5 24 -6 4 -8 3 -4 -4 3 -6 2 -13 -4
-17 -9 -5 -14 7 -11 27 0 4 -7 4 -16 1 -10 -4 -14 -2 -10 4 8 13 -11 12 -33
-1 -8 -5 -12 -6 -8 -1 4 4 3 14 -3 22 -9 10 -15 11 -26 2 -11 -9 -12 -9 -7 4
5 14 1 15 -25 7 -17 -5 -30 -5 -30 -2 3 20 -2 32 -11 27 -6 -4 -8 -10 -6 -14
3 -4 -1 -8 -9 -8 -8 0 -12 4 -10 8 3 3 -2 13 -11 20 -13 10 -17 10 -25 -2 -5
-8 -9 -9 -9 -3 0 7 -7 15 -16 18 -8 3 -12 2 -9 -3 3 -5 0 -13 -6 -17 -7 -4 -9
-3 -6 2 13 21 -13 39 -57 39 -26 1 -46 -3 -46 -7 0 -4 -5 -8 -11 -8 -5 0 -8 4
-5 8 3 5 -42 8 -99 8 -94 0 -103 -2 -94 -18 6 -11 5 -19 -3 -24 -6 -4 -9 -3
-5 2 3 5 0 17 -7 26 -11 15 -14 14 -30 -10z m130 6 c3 -3 -11 -5 -30 -4 -19 0
-37 4 -41 7 -3 4 10 6 30 4 19 -1 38 -4 41 -7z m187 -6 c-3 -7 -9 -9 -12 -4
-3 5 -14 8 -24 6 -9 -1 -15 1 -13 5 3 4 16 7 29 7 17 0 23 -4 20 -14z m24 -4
c-3 -8 -6 -5 -6 6 -1 11 2 17 5 13 3 -3 4 -12 1 -19z m-617 -97 c0 -5 -7 -12
-16 -15 -14 -5 -15 -4 -4 9 14 17 20 19 20 6z m1195 -220 c3 -5 2 -12 -3 -15
-5 -3 -9 1 -9 9 0 17 3 19 12 6z m-1573 -198 c-6 -2 -9 -10 -6 -15 4 -7 2 -8
-5 -4 -13 9 -5 26 12 25 9 0 8 -2 -1 -6z m-82 -327 c0 -3 -4 -8 -10 -11 -5 -3
-10 -1 -10 4 0 6 5 11 10 11 6 0 10 -2 10 -4z m-13 -51 c0 -8 -4 -12 -9 -9 -5
3 -6 10 -3 15 9 13 12 11 12 -6z m-7 -695 c0 -5 -2 -10 -4 -10 -3 0 -8 5 -11
10 -3 6 -1 10 4 10 6 0 11 -4 11 -10z m10 -400 c0 -5 -2 -10 -4 -10 -3 0 -8 5
-11 10 -3 6 -1 10 4 10 6 0 11 -4 11 -10z m5 -40 c10 -11 16 -20 13 -20 -3 0
-13 9 -23 20 -10 11 -16 20 -13 20 3 0 13 -9 23 -20z m-15 -520 c0 -5 -2 -10
-4 -10 -3 0 -8 5 -11 10 -3 6 -1 10 4 10 6 0 11 -4 11 -10z m10 -400 c0 -5 -2
-10 -4 -10 -3 0 -8 5 -11 10 -3 6 -1 10 4 10 6 0 11 -4 11 -10z m5 -40 c10
-11 16 -20 13 -20 -3 0 -13 9 -23 20 -10 11 -16 20 -13 20 3 0 13 -9 23 -20z
m-3 -297 c-6 -2 -9 -10 -6 -15 4 -7 2 -8 -5 -4 -13 9 -5 26 12 25 9 0 8 -2 -1
-6z m-2165 -358 c0 -8 -4 -15 -9 -15 -10 0 -11 14 -1 23 9 10 10 9 10 -8z
m-30 -10 c4 -4 3 -5 -4 -1 -6 3 -14 2 -18 -4 -4 -6 -11 -8 -16 -4 -5 3 -7 9
-4 14 6 10 31 7 42 -5z m9007 -44 c3 -5 -1 -11 -9 -14 -9 -4 -12 -1 -8 9 6 16
10 17 17 5z m-9302 -53 c-7 -7 -12 -8 -12 -2 0 14 12 26 19 19 2 -3 -1 -11 -7
-17z m9535 -93 c0 -8 -4 -12 -9 -9 -5 3 -6 10 -3 15 9 13 12 11 12 -6z m-9796
-108 c-6 -8 -7 -18 -3 -22 4 -5 1 -5 -6 -1 -10 6 -10 11 -1 22 6 8 14 14 16
14 3 0 0 -6 -6 -13z m-121 -211 c0 -3 -4 -8 -10 -11 -5 -3 -10 -1 -10 4 0 6 5
11 10 11 6 0 10 -2 10 -4z m-40 -86 c-8 -5 -19 -10 -25 -10 -5 0 -3 5 5 10 8
5 20 10 25 10 6 0 3 -5 -5 -10z m-41 -131 c-15 -9 -32 -2 -24 11 3 5 13 6 21
3 12 -4 13 -8 3 -14z m-9 -29 c0 -5 -2 -10 -4 -10 -3 0 -8 5 -11 10 -3 6 -1
10 4 10 6 0 11 -4 11 -10z m10344 -13 c-3 -33 -4 -37 -15 -37 -6 0 -7 5 -2 13
11 17 10 31 -2 40 -6 5 -4 7 5 4 8 -2 14 -11 14 -20z m6 -57 c-12 -8 -12 -10
-1 -10 8 0 12 -3 8 -6 -9 -9 -28 6 -22 17 4 5 12 9 18 9 7 0 6 -4 -3 -10z m7
-45 c0 -8 -6 -16 -13 -19 -7 -3 -10 2 -7 15 6 22 20 26 20 4z m-1 -58 c0 -26
-5 -33 -21 -35 -16 -1 -17 1 -5 8 8 5 11 10 7 10 -5 0 -5 6 0 13 4 6 8 15 9
20 6 29 10 22 10 -16z m1 -60 c0 -8 -6 -14 -13 -14 -7 0 -10 6 -7 14 3 7 8 13
12 13 4 0 8 -6 8 -13z m-10353 -89 c-3 -4 -9 -8 -15 -8 -5 0 -9 4 -9 8 0 5 7
9 15 9 8 0 12 -4 9 -9z m113 -322 c0 -6 4 -20 8 -31 10 -24 5 -19 -17 16 -12
19 -13 26 -4 26 7 0 13 -5 13 -11z m9707 -367 c-3 -5 -10 -7 -15 -3 -5 3 -7
10 -3 15 3 5 10 7 15 3 5 -3 7 -10 3 -15z m-84 -25 c0 -8 -19 -13 -24 -6 -3 5
1 9 9 9 8 0 15 -2 15 -3z m-8958 -38 c9 6 9 3 -1 -9 -8 -10 -14 -16 -15 -15
-1 2 -8 12 -16 23 -14 18 -14 19 2 7 10 -8 23 -10 30 -6z m2178 -346 c0 -5 -2
-10 -4 -10 -3 0 -8 5 -11 10 -3 6 -1 10 4 10 6 0 11 -4 11 -10z m5 -40 c10
-11 16 -20 13 -20 -3 0 -13 9 -23 20 -10 11 -16 20 -13 20 3 0 13 -9 23 -20z
m-15 -520 c0 -5 -2 -10 -4 -10 -3 0 -8 5 -11 10 -3 6 -1 10 4 10 6 0 11 -4 11
-10z m10 -400 c0 -5 -2 -10 -4 -10 -3 0 -8 5 -11 10 -3 6 -1 10 4 10 6 0 11
-4 11 -10z m5 -40 c10 -11 16 -20 13 -20 -3 0 -13 9 -23 20 -10 11 -16 20 -13
20 3 0 13 -9 23 -20z m-15 -520 c0 -5 -2 -10 -4 -10 -3 0 -8 5 -11 10 -3 6 -1
10 4 10 6 0 11 -4 11 -10z m0 -640 c0 -5 -2 -10 -4 -10 -3 0 -8 5 -11 10 -3 6
-1 10 4 10 6 0 11 -4 11 -10z m1870 -380 c0 -5 -5 -10 -11 -10 -5 0 -7 5 -4
10 3 6 8 10 11 10 2 0 4 -4 4 -10z m-75 -229 c3 -5 2 -12 -3 -15 -5 -3 -9 1
-9 9 0 17 3 19 12 6z m-1665 -96 c0 -8 -2 -15 -4 -15 -2 0 -6 7 -10 15 -3 8
-1 15 4 15 6 0 10 -7 10 -15z m80 -115 c0 -5 -2 -10 -4 -10 -3 0 -8 5 -11 10
-3 6 -1 10 4 10 6 0 11 -4 11 -10z m255 -218 c-3 -3 -11 0 -18 7 -9 10 -8 11
6 5 10 -3 15 -9 12 -12z m340 -112 c3 5 12 10 18 9 8 0 7 -3 -2 -6 -11 -5 -11
-7 0 -14 10 -6 6 -8 -11 -5 -14 3 -28 5 -32 5 -5 1 -8 6 -8 12 0 8 4 8 14 0
10 -8 16 -9 21 -1z m222 -16 c-3 -3 -12 -4 -19 -1 -8 3 -5 6 6 6 11 1 17 -2
13 -5z"/>
<path d="M7357 9788 c-6 -4 -15 -4 -21 -1 -5 3 -6 1 -2 -5 5 -9 13 -9 27 -2
11 7 19 7 19 1 0 -14 -30 -18 -68 -10 -26 6 -31 4 -23 -5 8 -9 7 -13 -4 -13
-8 0 -15 3 -15 7 0 4 -7 7 -15 7 -11 0 -12 -4 -3 -14 8 -11 7 -12 -6 -7 -12 5
-15 2 -10 -12 5 -15 4 -16 -4 -5 -6 8 -8 21 -4 29 4 11 -1 10 -14 -4 -13 -12
-16 -22 -10 -26 16 -11 -6 -10 -24 2 -17 11 -43 -7 -33 -24 3 -6 -4 -2 -18 9
-13 11 -18 13 -11 5 16 -19 15 -30 -4 -30 -9 0 -12 5 -8 12 5 7 3 8 -5 4 -7
-5 -10 -14 -7 -22 3 -8 0 -11 -9 -7 -8 3 -12 10 -8 16 3 6 1 7 -6 3 -6 -4 -8
-12 -5 -18 5 -8 1 -9 -10 -5 -13 5 -17 3 -13 -7 8 -20 -3 -27 -24 -15 -15 8
-17 6 -12 -8 6 -16 5 -16 -10 -4 -10 8 -20 11 -24 7 -3 -3 -1 -6 5 -6 7 0 12
-5 12 -11 0 -5 -5 -7 -12 -3 -7 5 -9 2 -5 -9 5 -12 0 -14 -20 -11 -22 4 -24 3
-14 -10 9 -11 9 -16 0 -22 -8 -4 -9 -3 -5 4 5 8 -1 11 -17 10 -25 -2 -32 -24
-13 -47 9 -12 8 -12 -11 -2 -19 10 -22 9 -16 -5 5 -14 3 -15 -14 -6 -18 10
-20 8 -16 -16 4 -21 2 -24 -6 -12 -9 13 -11 13 -11 -1 0 -9 -10 -24 -22 -35
l-23 -19 19 23 c29 34 14 26 -20 -10 -16 -18 -20 -26 -10 -18 18 14 19 13 13
-3 -4 -10 -7 -21 -7 -23 0 -3 -4 -2 -10 1 -5 3 -10 1 -10 -5 0 -6 -5 -8 -10
-5 -7 4 -9 -3 -6 -19 3 -16 0 -25 -7 -23 -7 1 -11 -4 -9 -11 1 -8 -2 -11 -8
-7 -19 12 -31 -5 -19 -27 7 -13 7 -18 1 -14 -6 3 -13 2 -17 -4 -4 -6 -12 -7
-18 -3 -7 4 -3 -6 7 -22 14 -22 15 -26 4 -17 -11 9 -18 10 -23 2 -3 -5 -2 -10
3 -10 6 0 9 -11 8 -24 0 -13 -5 -24 -11 -23 -5 1 -9 -6 -7 -15 2 -10 -2 -18
-8 -18 -6 0 -9 4 -5 9 3 5 2 12 -3 15 -5 3 -8 -18 -7 -45 0 -28 -3 -53 -8 -56
-4 -2 -5 -8 -2 -13 3 -5 1 -11 -4 -14 -5 -4 -13 -1 -17 5 -4 7 -3 9 3 6 5 -3
10 0 10 8 0 11 -4 12 -13 4 -10 -8 -11 -16 -4 -29 14 -26 13 -30 -7 -30 -15 0
-16 -2 -3 -10 8 -5 12 -12 8 -15 -3 -4 -2 -20 2 -36 6 -18 5 -31 -2 -35 -6 -4
-8 -2 -4 4 3 6 1 14 -5 18 -7 4 -9 3 -5 -4 3 -6 -2 -16 -11 -22 -17 -10 -17
-10 2 -8 16 3 19 -3 19 -32 -1 -19 -2 -39 -4 -45 -6 -25 1 -56 12 -49 7 5 8 3
2 -7 -8 -13 -14 -47 -14 -76 0 -64 4 -91 13 -86 6 4 7 1 1 -8 -14 -23 -15 -81
-1 -72 8 4 7 1 -1 -10 -8 -9 -10 -22 -6 -28 4 -7 -1 -18 -11 -26 -18 -12 -10
-19 18 -14 4 1 3 -8 -3 -19 -6 -11 -8 -20 -4 -20 3 0 1 -6 -5 -14 -9 -11 -9
-16 0 -22 8 -5 9 -3 4 6 -5 9 -4 11 4 6 6 -4 8 -13 4 -19 -4 -7 -8 -30 -9 -52
-1 -22 -3 -44 -4 -50 -6 -26 1 -56 12 -49 7 5 8 3 2 -7 -14 -23 -16 -92 -3
-83 8 5 9 3 3 -7 -14 -23 -15 -81 -1 -72 9 5 9 3 1 -8 -6 -8 -10 -33 -9 -56 1
-23 -2 -40 -7 -37 -4 3 -8 1 -8 -5 0 -5 8 -12 18 -14 14 -4 14 -5 -3 -6 -17
-1 -18 -3 -5 -11 12 -8 12 -10 -5 -10 -16 0 -17 -2 -5 -9 8 -6 19 -7 25 -3 5
3 4 -2 -4 -11 -8 -10 -11 -20 -8 -24 4 -3 2 -12 -4 -19 -7 -8 -6 -14 2 -20 8
-5 9 -3 4 6 -5 9 -4 11 4 6 6 -4 8 -13 4 -19 -7 -11 -13 -47 -13 -74 0 -64 4
-91 13 -86 6 4 7 1 1 -8 -14 -23 -15 -81 -1 -72 8 4 7 1 -1 -10 -8 -9 -10 -22
-6 -28 4 -7 -1 -18 -11 -26 -18 -12 -10 -19 18 -14 4 1 3 -8 -3 -19 -6 -11 -8
-20 -4 -20 3 0 1 -6 -5 -14 -9 -11 -9 -16 0 -22 8 -5 9 -3 4 6 -5 9 -4 11 4 6
6 -4 8 -13 4 -19 -4 -7 -8 -30 -9 -52 -1 -22 -3 -44 -4 -50 -6 -26 1 -56 12
-49 7 5 8 3 2 -7 -5 -8 -9 -35 -10 -61 -1 -26 -4 -53 -7 -61 -3 -7 2 -24 10
-38 8 -13 12 -16 9 -7 -3 10 0 20 6 24 6 4 8 3 4 -4 -3 -6 -2 -13 4 -17 6 -4
7 -12 3 -18 -3 -7 3 -3 15 7 21 18 28 13 23 -17 -1 -5 3 -6 8 -2 6 3 8 11 5
19 -3 7 2 13 11 13 8 0 15 -4 15 -9 0 -4 5 -8 11 -8 5 0 8 4 5 9 -4 5 2 8 11
6 10 -1 24 2 30 7 9 8 15 4 22 -13 9 -21 10 -22 11 -4 0 17 2 17 10 5 9 -14
14 -7 11 13 -1 5 3 6 9 2 6 -3 7 -12 3 -18 -4 -7 2 -5 12 3 10 8 16 10 12 3
-5 -8 0 -11 13 -10 11 1 20 6 20 11 0 5 3 6 7 3 3 -4 12 -2 20 5 10 8 12 8 8
-4 -3 -8 2 -21 12 -29 16 -12 17 -12 6 1 -10 13 -8 18 8 28 10 7 19 9 18 5 -1
-5 -1 -15 0 -23 1 -13 2 -13 11 0 9 14 80 22 80 9 0 -3 7 -6 15 -6 10 0 14 6
10 16 -4 11 0 10 16 -5 12 -10 19 -13 15 -7 -5 9 -2 11 10 6 13 -5 15 -3 10 8
-4 8 -1 5 8 -5 8 -10 13 -23 9 -29 -3 -6 -1 -7 5 -3 6 4 9 12 6 20 -3 7 2 13
11 13 8 0 15 -4 15 -9 0 -4 5 -8 11 -8 5 0 8 4 5 9 -4 5 2 8 11 6 10 -1 24 2
30 7 9 8 15 4 22 -13 9 -21 10 -22 11 -4 0 17 2 17 10 5 9 -14 14 -7 11 13 -1
5 3 6 9 2 6 -3 7 -12 3 -18 -4 -7 2 -5 12 3 10 8 16 10 12 3 -5 -8 0 -11 13
-10 11 1 20 6 20 11 0 5 3 6 7 3 3 -4 12 -2 20 5 10 8 12 8 8 -4 -3 -8 2 -21
12 -29 16 -12 17 -12 6 1 -10 13 -8 18 8 28 10 7 19 9 18 5 -1 -5 -1 -15 0
-23 1 -13 2 -13 11 0 9 14 80 22 80 9 0 -3 7 -6 15 -6 10 0 14 6 10 16 -4 11
0 10 16 -5 12 -10 19 -13 15 -7 -5 9 -2 11 10 6 13 -5 15 -3 10 8 -4 8 -1 5 8
-5 8 -10 13 -23 9 -29 -3 -6 -1 -7 5 -3 6 4 9 12 6 20 -3 7 2 13 11 13 8 0 15
-4 15 -9 0 -4 5 -8 11 -8 5 0 8 4 5 9 -4 5 2 8 11 6 10 -1 24 2 30 7 9 8 15 4
22 -13 9 -21 10 -22 11 -4 0 17 2 17 10 5 9 -14 14 -7 11 13 -1 5 3 6 9 2 6
-3 7 -12 3 -18 -4 -7 2 -5 12 3 10 8 16 10 12 3 -5 -8 0 -11 13 -10 11 1 20 6
20 11 0 5 3 6 7 3 3 -4 12 -2 20 5 10 8 12 8 8 -4 -3 -8 2 -21 12 -29 16 -12
17 -12 6 1 -10 13 -8 18 8 28 10 7 19 9 18 5 -1 -5 -1 -15 0 -23 1 -13 2 -13
11 0 9 14 80 22 80 9 0 -3 7 -6 15 -6 10 0 14 6 10 16 -4 11 0 10 16 -5 12
-10 19 -13 15 -7 -5 9 -2 11 10 6 13 -5 15 -3 10 8 -4 8 -1 5 8 -5 8 -10 13
-23 9 -29 -3 -6 -1 -7 5 -3 6 4 9 12 6 20 -3 7 2 13 11 13 8 0 15 -4 15 -9 0
-4 5 -8 11 -8 5 0 8 4 5 9 -4 5 2 8 11 6 10 -1 24 2 30 7 9 8 15 4 22 -13 9
-21 10 -22 11 -4 0 17 2 17 10 5 9 -14 14 -7 11 13 -1 5 3 6 9 2 6 -3 7 -12 3
-18 -4 -7 2 -5 12 3 10 8 16 10 12 3 -5 -8 0 -11 13 -10 11 1 20 5 20 10 0 5
6 7 14 4 7 -3 18 -1 24 5 8 8 14 5 21 -13 8 -20 10 -21 10 -5 1 20 1 20 15 0
12 -16 17 -17 28 -6 11 11 10 12 -3 7 -10 -4 -16 0 -16 9 0 11 6 12 24 5 18
-6 23 -5 23 6 0 8 -5 15 -12 15 -6 0 -9 3 -6 6 4 3 16 0 28 -6 18 -10 21 -10
14 2 -12 19 -14 37 -3 44 12 7 12 34 -1 34 -5 0 -7 -6 -4 -14 3 -8 0 -17 -5
-21 -6 -3 -9 -10 -7 -14 3 -4 -2 -8 -10 -8 -10 0 -11 4 -4 11 15 15 13 59 -2
50 -9 -5 -9 -2 1 9 16 20 25 23 15 5 -6 -10 -4 -10 6 -1 12 11 11 16 -6 28
-18 15 -18 16 6 9 24 -6 24 -6 5 9 -11 8 -24 13 -29 10 -5 -4 -6 -1 -2 6 4 6
11 9 16 6 5 -3 11 -1 15 5 3 5 -2 10 -12 10 -17 1 -17 1 0 11 9 5 17 15 17 21
0 9 -3 9 -12 0 -22 -22 -29 -13 -8 10 23 25 27 47 6 29 -11 -9 -16 -9 -22 0
-5 8 -3 9 5 5 8 -5 12 -3 10 5 -3 26 1 40 10 35 5 -3 14 1 21 9 9 10 9 15 1
15 -6 0 -11 -5 -11 -11 0 -8 -6 -7 -17 2 -10 8 -14 9 -10 2 4 -6 3 -14 -2 -17
-5 -4 -8 2 -7 11 2 10 8 18 14 18 6 0 14 3 18 8 4 4 -1 7 -12 7 -18 1 -18 1
-1 11 9 5 17 15 17 21 0 7 -6 6 -15 -2 -9 -7 -18 -10 -22 -6 -3 3 -1 6 5 6 7
0 12 9 12 21 0 11 -4 17 -10 14 -16 -10 -11 1 7 16 15 12 16 12 8 -1 -6 -12
-5 -13 5 -3 12 11 11 16 -6 28 -18 15 -18 16 6 9 24 -6 24 -6 5 9 -11 8 -24
13 -29 10 -5 -4 -6 -1 -2 6 4 6 11 9 16 6 5 -3 11 -1 15 5 3 5 -2 10 -12 10
-17 1 -17 1 0 11 9 5 17 15 17 21 0 9 -3 9 -12 0 -22 -22 -29 -13 -8 10 23 25
27 47 6 29 -11 -9 -16 -9 -22 0 -5 8 -3 9 5 5 8 -5 12 -3 10 5 -3 26 1 40 10
35 5 -3 14 1 21 9 9 10 9 15 1 15 -6 0 -11 -5 -11 -11 0 -8 -6 -7 -17 2 -10 8
-14 9 -10 2 4 -6 3 -14 -2 -17 -5 -4 -8 2 -7 11 2 10 8 18 14 18 6 0 14 3 18
8 4 4 -1 7 -12 7 -18 1 -18 1 -1 11 9 5 17 15 17 21 0 7 -6 6 -15 -2 -9 -7
-18 -10 -22 -6 -3 3 -1 6 5 6 7 0 12 9 12 21 0 11 -4 17 -10 14 -16 -10 -11 1
7 16 15 12 16 12 8 -1 -6 -12 -5 -13 5 -3 12 11 11 16 -6 28 -18 15 -18 16 6
9 24 -6 24 -6 5 9 -11 8 -24 13 -29 10 -5 -4 -6 -1 -2 6 4 6 11 9 16 6 5 -3
11 -1 15 5 3 5 -2 10 -12 10 -17 1 -17 1 0 11 9 5 17 15 17 21 0 9 -3 9 -12 0
-22 -22 -29 -13 -8 10 23 25 27 47 6 29 -11 -9 -16 -9 -22 0 -5 8 -3 9 5 5 8
-5 12 -3 10 5 -3 26 1 40 10 35 5 -3 14 1 21 9 9 10 9 15 1 15 -6 0 -11 -5
-11 -11 0 -8 -6 -7 -17 2 -10 8 -14 9 -10 2 4 -6 3 -14 -2 -17 -5 -4 -8 2 -7
11 2 10 8 18 14 18 6 0 14 3 18 8 4 4 -1 7 -12 7 -18 1 -18 1 -1 11 9 5 17 15
17 21 0 7 -6 6 -15 -2 -9 -7 -18 -10 -22 -6 -3 3 -1 6 5 6 7 0 12 9 12 21 0
13 -4 18 -12 13 -9 -5 -9 -2 1 9 16 20 25 23 15 5 -6 -10 -4 -10 6 -1 12 11
11 16 -6 28 -18 15 -18 16 6 9 24 -6 24 -6 5 9 -11 8 -24 13 -29 10 -5 -4 -6
-1 -2 6 4 6 11 9 16 6 5 -3 11 -1 15 5 3 5 -2 10 -12 10 -17 1 -17 1 0 11 9 5
17 15 17 21 0 9 -3 9 -12 0 -22 -22 -29 -13 -8 10 23 25 27 47 6 29 -11 -9
-16 -9 -22 0 -5 8 -3 9 5 5 8 -5 12 -3 10 5 -3 26 1 40 10 35 5 -3 14 1 21 9
9 10 9 15 1 15 -6 0 -11 -5 -11 -11 0 -8 -6 -7 -17 2 -10 8 -14 9 -10 2 4 -6
3 -14 -2 -17 -5 -4 -8 2 -7 11 2 10 8 18 14 18 6 0 14 3 18 8 4 4 -1 7 -12 7
-18 1 -18 1 -1 11 9 5 17 15 17 21 0 7 -6 6 -15 -2 -9 -7 -18 -10 -22 -6 -3 3
-1 6 6 6 8 0 11 8 8 19 -3 13 0 18 7 15 7 -3 13 2 13 10 0 8 -4 13 -9 10 -4
-3 -8 0 -8 7 0 8 -5 7 -17 -2 -16 -13 -17 -12 -4 3 7 10 17 15 22 12 5 -3 10
0 10 5 3 21 4 26 13 39 7 11 4 12 -11 3 -28 -14 -35 -3 -16 26 13 20 14 26 3
36 -10 9 -11 9 -6 0 3 -6 2 -14 -3 -17 -5 -4 -8 2 -7 11 2 10 8 18 14 18 6 0
14 3 18 8 4 4 -1 7 -12 7 -18 1 -18 1 -1 11 9 5 17 15 17 21 0 7 -6 6 -15 -2
-9 -7 -18 -10 -22 -6 -3 3 -2 6 4 6 6 0 11 11 11 25 0 13 -5 22 -10 19 -6 -4
-5 3 1 15 7 12 9 25 6 30 -7 12 5 42 14 36 4 -2 8 2 8 10 0 18 -9 19 -23 5 -7
-7 -11 -6 -11 4 0 8 5 13 10 9 5 -3 6 3 2 16 -4 13 -2 21 5 21 6 0 9 -4 5 -9
-3 -5 -2 -12 3 -15 4 -2 8 13 9 35 2 36 -5 44 -30 40 -5 -1 -6 3 -2 9 3 6 11
8 16 5 5 -3 6 2 2 11 -5 13 -3 15 8 9 8 -5 3 4 -10 18 -19 20 -21 30 -13 40 7
8 9 16 6 19 -2 3 -7 18 -10 33 -3 20 -1 25 8 19 10 -6 9 -3 -1 9 -7 9 -19 17
-25 17 -6 0 -4 -5 4 -11 13 -9 13 -10 0 -6 -8 2 -14 12 -12 22 2 10 -2 22 -10
26 -10 7 -10 9 0 9 6 0 12 5 12 11 0 6 -9 8 -22 4 -13 -3 -18 -3 -13 2 6 4 17
17 25 27 12 16 12 18 1 11 -11 -6 -13 -4 -8 8 3 9 3 16 -1 16 -4 -1 -16 -1
-27 0 -17 1 -18 3 -5 11 11 7 11 10 2 10 -7 0 -10 5 -7 10 3 6 1 10 -5 10 -6
0 -8 5 -5 10 4 6 11 7 17 4 6 -4 8 -2 5 4 -4 5 -16 8 -26 5 -10 -3 -22 1 -26
8 -5 8 -4 10 3 5 7 -4 12 -2 12 3 0 6 -4 11 -9 11 -9 0 -23 32 -25 60 -1 8 -7
14 -14 13 -11 -3 -16 10 -13 30 1 5 -3 6 -8 2 -6 -3 -8 -13 -5 -23 5 -14 4
-14 -4 -2 -6 8 -8 18 -6 22 3 4 0 8 -5 8 -6 0 -11 9 -11 19 0 24 -15 36 -51
40 -5 0 -7 6 -4 11 3 6 -3 10 -13 10 -19 0 -54 30 -36 30 5 0 3 4 -4 9 -7 4
-14 17 -14 27 -1 11 -9 20 -19 20 -10 0 -15 -6 -12 -16 2 -8 -4 -1 -14 16 -11
18 -24 29 -32 26 -8 -2 -11 0 -7 6 4 6 -2 8 -16 4 -18 -4 -20 -2 -15 18 4 17
3 20 -6 11 -16 -16 -30 -14 -23 4 3 8 1 15 -4 15 -6 0 -10 -8 -11 -17 0 -11
-3 -13 -6 -5 -2 6 -9 10 -14 7 -5 -4 -6 2 -2 11 4 12 3 15 -6 10 -15 -10 -43
12 -35 28 3 6 -1 3 -9 -6 -16 -21 -28 -23 -24 -6 1 7 -5 13 -13 14 -31 3 -35
5 -22 13 11 7 10 9 -3 14 -9 4 -13 3 -10 -3 3 -6 -1 -10 -10 -10 -9 0 -13 5
-10 10 3 6 1 10 -4 10 -6 0 -11 -6 -11 -12 0 -9 -4 -8 -10 2 -9 13 -11 13 -20
0 -5 -8 -10 -10 -10 -4 0 7 -7 15 -16 18 -12 5 -15 2 -10 -11 5 -16 5 -16 -8
0 -10 13 -21 17 -34 13 -11 -4 -23 -2 -27 3 -3 6 0 8 8 5 8 -3 17 -2 20 3 10
15 -73 8 -84 -7 -9 -13 -10 -13 -6 1 5 14 -3 17 -46 17 -29 -1 -58 -6 -66 -12
-11 -8 -13 -8 -7 2 5 9 -4 12 -39 10 -26 -2 -52 -6 -58 -10z m79 -11 c4 -7 4
-9 -1 -5 -4 4 -15 3 -25 -2 -11 -6 -17 -5 -17 4 0 16 35 18 43 3z m194 -11 c0
-3 -4 -8 -10 -11 -5 -3 -10 -1 -10 4 0 6 5 11 10 11 6 0 10 -2 10 -4z m420
-140 c0 -3 -4 -8 -10 -11 -5 -3 -10 -1 -10 4 0 6 5 11 10 11 6 0 10 -2 10 -4z
m47 -48 c-3 -8 -6 -5 -6 6 -1 11 2 17 5 13 3 -3 4 -12 1 -19z m119 -107 c-4
-6 -13 -11 -19 -10 -9 0 -9 2 1 6 6 2 12 9 12 14 0 6 -5 7 -12 3 -7 -5 -8 -3
-3 5 5 9 11 9 17 3 6 -6 7 -15 4 -21z m168 -246 c3 -8 1 -15 -4 -15 -6 0 -10
7 -10 15 0 8 2 15 4 15 2 0 6 -7 10 -15z m41 -134 c3 -5 2 -12 -3 -15 -5 -3
-9 1 -9 9 0 17 3 19 12 6z m25 -105 c0 -3 -4 -8 -10 -11 -5 -3 -10 -1 -10 4 0
6 5 11 10 11 6 0 10 -2 10 -4z m8 -68 c-2 -6 -10 -13 -16 -14 -7 -1 -8 0 -2 3
5 2 8 9 4 14 -3 5 0 9 6 9 7 0 10 -5 8 -12z m-1861 -83 c0 -8 -4 -12 -9 -9 -5
3 -6 10 -3 15 9 13 12 11 12 -6z m0 -120 c0 -8 -4 -12 -9 -9 -5 3 -6 10 -3 15
9 13 12 11 12 -6z m0 -440 c0 -8 -4 -12 -9 -9 -5 3 -6 10 -3 15 9 13 12 11 12
-6z m0 -520 c0 -8 -4 -12 -9 -9 -5 3 -6 10 -3 15 9 13 12 11 12 -6z m0 -440
c0 -8 -4 -12 -9 -9 -5 3 -6 10 -3 15 9 13 12 11 12 -6z"/>
<path d="M4175 9760 c3 -5 8 -10 11 -10 2 0 4 5 4 10 0 6 -5 10 -11 10 -5 0
-7 -4 -4 -10z"/>
<path d="M8136 9561 c-3 -5 1 -12 10 -15 22 -8 25 -4 9 11 -8 7 -16 9 -19 4z"/>
<path d="M6715 9380 c-3 -5 -1 -10 4 -10 6 0 11 5 11 10 0 6 -2 10 -4 10 -3 0
-8 -4 -11 -10z"/>
<path d="M6645 9230 c-4 -6 -11 -7 -17 -4 -7 4 -8 2 -4 -4 10 -16 23 -15 30 3
6 17 0 20 -9 5z"/>
<path d="M3026 9187 c3 -10 9 -15 12 -12 3 3 0 11 -7 18 -10 9 -11 8 -5 -6z"/>
<path d="M6600 9121 c0 -6 4 -13 10 -16 6 -3 7 1 4 9 -7 18 -14 21 -14 7z"/>
<path d="M6550 8896 c0 -2 7 -7 16 -10 8 -3 12 -2 9 4 -6 10 -25 14 -25 6z"/>
<path d="M8450 8801 c0 -6 4 -12 8 -15 5 -3 9 1 9 9 0 8 -4 15 -9 15 -4 0 -8
-4 -8 -9z"/>
<path d="M6562 8781 c-11 -7 -11 -9 0 -14 9 -3 15 1 15 9 0 8 -1 14 -1 14 -1
0 -7 -4 -14 -9z"/>
<path d="M8450 8760 c0 -16 17 -20 28 -7 8 10 6 13 -9 14 -10 1 -19 -2 -19 -7z"/>
<path d="M6563 8645 c0 -8 4 -12 9 -9 5 3 6 10 3 15 -9 13 -12 11 -12 -6z"/>
<path d="M8470 8639 c0 -5 5 -7 10 -4 6 3 10 8 10 11 0 2 -4 4 -10 4 -5 0 -10
-5 -10 -11z"/>
<path d="M8449 8593 c-13 -16 -12 -17 4 -4 9 7 17 15 17 17 0 8 -8 3 -21 -13z"/>
<path d="M6550 8445 c0 -2 6 -8 13 -14 10 -8 14 -7 14 2 0 8 -6 14 -14 14 -7
0 -13 -1 -13 -2z"/>
<path d="M6565 8381 c-3 -5 -2 -12 3 -15 5 -3 9 1 9 9 0 17 -3 19 -12 6z"/>
<path d="M6556 8338 c3 -5 10 -6 15 -3 13 9 11 12 -6 12 -8 0 -12 -4 -9 -9z"/>
<path d="M6560 8300 c-9 -6 -10 -10 -3 -10 6 0 15 5 18 10 8 12 4 12 -15 0z"/>
<path d="M6550 8225 c0 -2 6 -8 13 -14 10 -8 14 -7 14 2 0 8 -6 14 -14 14 -7
0 -13 -1 -13 -2z"/>
<path d="M6556 7872 c-3 -5 1 -9 9 -9 8 0 12 4 9 9 -3 4 -7 8 -9 8 -2 0 -6 -4
-9 -8z"/>
<path d="M6562 7821 c-11 -7 -11 -9 0 -14 9 -3 15 1 15 9 0 8 -1 14 -1 14 -1
0 -7 -4 -14 -9z"/>
<path d="M6563 7685 c0 -8 4 -12 9 -9 5 3 6 10 3 15 -9 13 -12 11 -12 -6z"/>
<path d="M6550 7485 c0 -2 6 -8 13 -14 10 -8 14 -7 14 2 0 8 -6 14 -14 14 -7
0 -13 -1 -13 -2z"/>
<path d="M6565 7421 c-3 -5 -2 -12 3 -15 5 -3 9 1 9 9 0 17 -3 19 -12 6z"/>
<path d="M6556 7378 c3 -5 10 -6 15 -3 13 9 11 12 -6 12 -8 0 -12 -4 -9 -9z"/>
<path d="M6560 7340 c-9 -6 -10 -10 -3 -10 6 0 15 5 18 10 8 12 4 12 -15 0z"/>
<path d="M6550 7265 c0 -2 6 -8 13 -14 10 -8 14 -7 14 2 0 8 -6 14 -14 14 -7
0 -13 -1 -13 -2z"/>
<path d="M6556 7182 c-3 -5 1 -9 9 -9 8 0 12 4 9 9 -3 4 -7 8 -9 8 -2 0 -6 -4
-9 -8z"/>
<path d="M6745 7100 c-4 -6 -11 -8 -16 -5 -16 10 -10 -2 9 -16 9 -7 14 -9 10
-5 -4 5 -3 15 3 23 6 7 9 13 6 13 -3 0 -9 -5 -12 -10z"/>
<path d="M7225 7100 c-4 -6 -11 -8 -16 -5 -16 10 -10 -2 9 -16 9 -7 14 -9 10
-5 -4 5 -3 15 3 23 6 7 9 13 6 13 -3 0 -9 -5 -12 -10z"/>
<path d="M7705 7100 c-4 -6 -11 -8 -16 -5 -16 10 -10 -2 9 -16 9 -7 14 -9 10
-5 -4 5 -3 15 3 23 6 7 9 13 6 13 -3 0 -9 -5 -12 -10z"/>
<path d="M8185 7100 c-4 -6 -11 -8 -16 -5 -16 10 -10 -2 9 -16 9 -7 14 -9 10
-5 -4 5 -3 15 3 23 6 7 9 13 6 13 -3 0 -9 -5 -12 -10z"/>
<path d="M8345 7100 c-4 -6 -11 -8 -16 -5 -16 10 -10 -2 9 -16 9 -7 14 -9 10
-5 -4 5 -3 15 3 23 6 7 9 13 6 13 -3 0 -9 -5 -12 -10z"/>
<path d="M1746 6148 c3 -5 10 -6 15 -3 13 9 11 12 -6 12 -8 0 -12 -4 -9 -9z"/>
<path d="M6226 6148 c3 -5 10 -6 15 -3 13 9 11 12 -6 12 -8 0 -12 -4 -9 -9z"/>
<path d="M7826 6148 c3 -5 10 -6 15 -3 13 9 11 12 -6 12 -8 0 -12 -4 -9 -9z"/>
<path d="M8466 6148 c3 -5 10 -6 15 -3 13 9 11 12 -6 12 -8 0 -12 -4 -9 -9z"/>
<path d="M10125 5860 c-3 -5 -1 -10 4 -10 6 0 11 5 11 10 0 6 -2 10 -4 10 -3
0 -8 -4 -11 -10z"/>
<path d="M10270 5660 c0 -5 5 -10 11 -10 5 0 7 5 4 10 -3 6 -8 10 -11 10 -2 0
-4 -4 -4 -10z"/>
<path d="M65 5600 c-3 -5 -1 -10 4 -10 6 0 11 5 11 10 0 6 -2 10 -4 10 -3 0
-8 -4 -11 -10z"/>
<path d="M10340 5466 c0 -2 7 -9 15 -16 13 -11 14 -10 9 4 -5 14 -24 23 -24
12z"/>
<path d="M10360 5040 c0 -5 9 -8 20 -7 21 1 18 10 -5 13 -8 1 -15 -2 -15 -6z"/>
<path d="M10135 4561 c-3 -5 -2 -12 3 -15 5 -3 9 1 9 9 0 17 -3 19 -12 6z"/>
<path d="M394 4418 c-4 -7 -4 -10 1 -6 4 4 15 2 24 -5 14 -11 14 -10 2 6 -16
20 -18 21 -27 5z"/>
<path d="M9905 4381 c-3 -5 -2 -12 3 -15 5 -3 9 1 9 9 0 17 -3 19 -12 6z"/>
<path d="M6809 3313 c-13 -16 -12 -17 4 -4 9 7 17 15 17 17 0 8 -8 3 -21 -13z"/>
<path d="M7083 3318 c-13 -6 -23 -15 -23 -20 0 -5 11 -1 25 8 37 24 35 30 -2
12z"/>
<path d="M7235 3314 c3 -19 -1 -21 -33 -20 -24 2 -36 7 -34 15 1 7 -2 10 -8 6
-6 -3 -8 -9 -6 -13 2 -4 -7 -8 -20 -8 -15 -1 -21 2 -17 10 4 6 -1 5 -10 -3 -9
-7 -17 -10 -17 -6 0 4 -7 2 -15 -5 -12 -10 -16 -9 -21 4 -7 18 -34 22 -34 5 0
-5 5 -7 12 -3 7 5 8 3 3 -6 -6 -10 -12 -7 -26 11 -15 20 -20 22 -31 11 -11
-11 -10 -12 5 -7 10 5 17 2 17 -6 0 -7 -3 -9 -7 -6 -3 4 -13 1 -21 -6 -13 -9
-14 -9 -8 1 4 7 2 12 -4 12 -6 0 -8 5 -4 12 4 7 3 8 -5 4 -6 -4 -9 -11 -6 -16
3 -4 -2 -10 -10 -13 -10 -4 -12 -1 -8 11 6 15 5 16 -12 2 -17 -14 -18 -13 -11
4 7 20 7 20 -14 1 -21 -19 -22 -19 -35 -2 -7 10 -16 14 -19 8 -3 -5 0 -12 6
-15 7 -3 2 -4 -12 -3 -14 1 -31 6 -39 11 -10 6 -12 5 -7 -2 5 -8 0 -11 -16 -8
-13 2 -28 -1 -35 -6 -7 -6 -14 -5 -19 3 -5 8 -3 9 6 4 9 -5 11 -4 6 4 -4 6
-13 8 -19 4 -19 -12 -51 -11 -59 1 -5 7 -8 6 -8 -4 0 -13 -2 -13 -9 -1 -8 12
-12 12 -25 2 -13 -11 -16 -11 -16 -1 0 8 -3 10 -6 7 -4 -4 -1 -13 6 -22 10
-12 9 -16 -5 -21 -13 -5 -14 -9 -3 -15 10 -7 9 -9 -4 -9 -9 0 -19 -4 -22 -9
-3 -4 5 -7 19 -6 21 3 23 1 12 -15 -6 -10 -15 -16 -21 -13 -5 4 -6 1 -2 -6 5
-7 15 -10 23 -6 12 4 13 3 5 -8 -7 -8 -9 -17 -5 -20 3 -4 1 -7 -4 -7 -6 0 -10
-8 -8 -17 1 -10 8 -17 15 -15 7 1 8 -2 4 -10 -14 -22 -16 -90 -3 -82 8 5 9 3
3 -7 -14 -23 -15 -81 -1 -72 9 5 9 3 1 -8 -6 -8 -10 -33 -9 -56 1 -23 -2 -40
-7 -37 -4 3 -8 1 -8 -5 0 -5 8 -12 18 -14 14 -4 14 -5 -3 -6 -17 -1 -18 -3 -5
-11 12 -8 12 -10 -5 -10 -16 0 -17 -2 -5 -9 8 -6 19 -7 25 -3 5 3 4 -2 -4 -11
-8 -10 -11 -20 -8 -24 4 -3 2 -12 -4 -19 -7 -8 -6 -14 2 -20 8 -5 9 -3 4 6 -5
9 -4 11 4 6 6 -4 8 -13 4 -19 -7 -11 -13 -47 -13 -74 0 -64 4 -91 13 -86 6 4
7 1 1 -8 -14 -23 -15 -81 -1 -72 8 4 7 1 -1 -10 -8 -9 -10 -22 -6 -28 4 -7 -1
-18 -11 -26 -18 -12 -10 -19 18 -14 4 1 3 -8 -3 -19 -6 -11 -8 -20 -4 -20 3 0
1 -6 -5 -14 -9 -11 -9 -16 0 -22 8 -5 9 -3 4 6 -5 9 -4 11 4 6 6 -4 8 -13 4
-19 -4 -7 -8 -30 -9 -52 -1 -22 -3 -44 -4 -50 -6 -26 1 -56 12 -49 7 5 8 3 2
-7 -14 -23 -16 -92 -3 -83 8 5 9 3 3 -7 -14 -23 -15 -81 -1 -72 9 5 9 3 1 -8
-6 -8 -10 -33 -9 -56 1 -23 -2 -40 -7 -37 -4 3 -8 1 -8 -5 0 -5 8 -12 18 -14
14 -4 14 -5 -3 -6 -17 -1 -18 -3 -5 -11 12 -8 12 -10 -5 -10 -16 0 -17 -2 -5
-9 8 -6 19 -7 25 -3 5 3 4 -2 -4 -11 -8 -10 -11 -20 -8 -24 4 -3 2 -12 -4 -19
-7 -8 -6 -14 2 -20 8 -5 9 -3 4 6 -5 9 -4 11 4 6 6 -4 8 -13 4 -19 -6 -10 -11
-35 -14 -72 0 -5 1 -25 4 -43 4 -26 2 -30 -9 -21 -22 18 -16 2 7 -20 15 -14
17 -21 8 -26 -8 -5 -10 -4 -5 3 4 7 2 12 -3 12 -17 0 -13 -21 6 -35 13 -9 13
-14 3 -20 -9 -5 -11 -4 -6 3 4 7 2 12 -3 12 -16 0 -13 -21 4 -34 11 -8 12 -15
4 -26 -9 -13 -10 -12 -5 3 3 9 1 17 -4 17 -6 0 -10 -9 -10 -20 0 -11 5 -20 10
-20 7 0 7 -6 1 -19 -8 -14 -7 -22 4 -31 12 -10 13 -16 4 -26 -7 -9 -8 -14 -1
-14 5 0 8 -9 5 -20 -3 -11 0 -20 6 -20 6 0 11 -9 11 -21 0 -11 -4 -17 -10 -14
-16 10 -11 -1 7 -16 11 -10 14 -10 9 -1 -4 6 -2 12 3 12 12 0 14 -13 4 -24
-10 -10 -11 -46 -1 -40 4 3 8 -1 8 -8 0 -9 3 -9 10 2 5 8 10 10 10 4 0 -6 -3
-14 -7 -18 -14 -13 -11 -36 4 -36 13 0 13 3 2 17 -11 15 -11 16 1 6 17 -16 21
-54 6 -73 -6 -8 0 -6 13 5 l24 20 -12 -23 c-12 -22 -11 -23 11 -17 20 7 21 6
9 -9 -8 -10 -9 -16 -3 -16 6 0 9 -7 6 -15 -5 -11 -1 -14 12 -10 17 5 17 4 3
-6 -14 -10 -13 -14 8 -35 13 -13 21 -29 17 -36 -4 -7 -3 -8 5 -4 6 4 9 13 5
19 -3 7 1 4 9 -5 8 -10 18 -14 22 -10 5 4 4 0 -1 -8 -15 -26 -12 -36 8 -37 20
-2 20 -1 2 13 -18 14 -18 14 3 4 14 -6 20 -16 17 -25 -4 -8 -1 -15 6 -15 9 0
9 -4 -1 -18 -10 -13 -8 -12 10 3 14 11 21 14 17 8 -4 -7 -3 -13 3 -13 6 0 18
-16 27 -35 11 -25 20 -33 28 -26 8 6 17 6 26 -1 12 -8 12 -9 -2 -4 -10 3 -18
1 -18 -4 0 -6 8 -10 19 -10 10 0 24 -7 31 -15 7 -8 16 -12 21 -9 5 3 6 -2 3
-10 -9 -24 5 -39 22 -25 12 10 14 10 12 -1 -2 -7 3 -15 10 -17 8 -3 10 1 6 11
-3 9 -2 16 4 16 6 0 9 -11 8 -25 -2 -13 0 -24 3 -23 3 0 9 -1 14 -2 4 -1 13
-3 20 -4 6 -1 11 -9 11 -19 -1 -9 2 -14 8 -11 5 3 6 15 3 27 -2 12 -2 16 1 9
3 -6 11 -9 16 -6 6 4 8 2 5 -3 -7 -12 20 -26 33 -18 4 3 11 -2 14 -11 3 -9 12
-14 19 -11 6 2 18 -5 25 -17 13 -21 13 -21 8 2 -4 19 -2 21 10 11 7 -6 11 -16
7 -23 -4 -6 0 -5 9 2 13 10 18 10 24 1 5 -8 3 -9 -6 -4 -8 5 -11 4 -7 -1 7
-12 67 -11 86 0 7 5 17 4 23 -2 6 -6 17 -8 24 -5 8 3 14 1 14 -4 0 -5 -11 -9
-24 -9 -14 0 -22 4 -20 8 3 4 0 8 -6 8 -7 0 -10 -6 -8 -12 6 -18 144 -18 140
0 -1 8 2 11 8 7 6 -3 8 -11 5 -16 -4 -5 3 -9 15 -9 12 0 19 4 15 9 -3 5 0 13
6 17 8 4 9 3 5 -5 -11 -17 24 -26 46 -12 11 7 17 8 14 3 -8 -14 60 -10 74 4 8
8 6 11 -4 11 -8 0 -13 -3 -11 -7 3 -4 -5 -7 -17 -6 -12 0 -23 8 -25 16 -4 12
-3 13 5 1 6 -9 15 -10 23 -5 19 12 32 12 47 1 7 -6 12 -6 12 1 0 5 10 8 22 4
16 -4 19 -2 13 9 -8 12 -6 12 8 0 11 -9 17 -10 17 -2 0 6 5 11 11 11 5 0 7 -6
3 -12 -5 -9 -2 -9 9 1 13 11 17 11 17 1 0 -8 3 -10 6 -7 4 4 1 14 -7 23 -13
16 -12 16 11 4 24 -13 24 -12 10 5 -14 17 -14 18 8 6 16 -9 22 -9 22 0 0 7 9
9 21 6 16 -4 18 -3 9 8 -9 11 -7 12 9 8 12 -3 18 -10 14 -17 -3 -6 -2 -7 3 -3
5 5 9 14 9 20 0 7 10 13 23 15 12 2 20 7 17 12 -3 5 -1 11 4 14 5 4 13 1 17
-5 5 -8 3 -9 -6 -4 -8 5 -11 4 -6 -3 4 -6 14 -8 22 -5 9 3 12 9 7 12 -13 9
-15 33 -2 25 6 -3 16 0 21 7 6 10 7 7 3 -9 -7 -23 -6 -23 25 5 18 15 36 27 41
26 4 -2 5 5 2 15 -6 15 -5 16 12 2 17 -14 18 -14 7 7 -12 21 1 44 15 29 4 -3
1 -6 -6 -6 -7 0 -9 -5 -5 -11 5 -8 10 -6 16 5 5 9 15 14 21 10 7 -3 3 2 -8 11
-20 17 -20 17 2 11 12 -4 24 -2 28 4 3 6 10 8 15 5 4 -3 6 5 2 17 -4 16 -2 19
8 13 10 -6 12 -1 8 19 -4 21 -3 24 8 15 8 -7 14 -7 14 -2 0 6 10 14 22 20 15
6 18 12 10 17 -7 4 -12 2 -12 -3 0 -6 -5 -11 -11 -11 -8 0 -8 4 1 15 6 8 17
13 23 12 7 -1 11 4 9 11 -1 6 2 12 8 12 6 0 9 4 8 10 -2 5 10 20 26 33 27 22
27 24 12 40 -10 9 -14 17 -9 17 5 0 15 -6 22 -12 10 -11 11 -10 6 3 -4 10 -1
20 6 25 8 5 10 3 4 -7 -6 -10 -5 -11 4 -3 16 15 22 54 8 50 -7 -1 -9 -1 -4 1
4 3 4 9 1 15 -4 6 2 6 14 -1 15 -8 23 -8 28 1 4 6 3 8 -4 4 -6 -3 -13 -2 -16
3 -3 5 1 12 10 15 13 5 14 9 4 21 -10 12 -10 15 1 15 11 0 11 2 -1 10 -13 8
-13 10 2 10 9 0 20 5 24 12 4 7 3 8 -4 4 -8 -5 -11 0 -8 16 2 13 -2 30 -8 38
-10 13 -9 13 6 1 10 -7 16 -17 13 -21 -3 -5 -2 -11 3 -14 4 -2 7 19 7 47 -1
29 4 60 11 71 14 20 8 49 -9 39 -6 -4 -7 -1 -3 6 5 7 14 10 22 7 18 -7 29 13
15 27 -9 9 -10 7 -5 -7 5 -13 4 -17 -4 -12 -7 4 -12 14 -12 22 0 9 -5 12 -12
8 -7 -4 -8 -3 -4 5 4 6 12 9 17 6 5 -4 9 -2 9 4 0 5 -8 15 -17 20 -25 14 -7
14 20 -1 19 -10 20 -9 10 4 -7 8 -9 19 -5 23 4 5 1 4 -7 0 -11 -6 -13 -4 -8 9
4 10 7 20 7 22 0 3 6 2 13 -2 9 -6 9 -5 0 7 -9 11 -9 19 -2 26 6 6 5 10 -6 10
-8 0 -15 -4 -15 -9 0 -4 -5 -8 -12 -8 -6 0 -1 11 11 24 13 14 18 26 13 30 -6
3 -13 0 -15 -6 -4 -9 -6 -10 -6 -1 -1 6 4 15 9 18 7 4 6 14 -2 28 -10 21 -10
21 7 7 17 -14 18 -14 6 8 -6 12 -9 28 -5 35 5 7 -1 5 -12 -3 -17 -14 -18 -13
-7 1 7 9 10 19 6 23 -4 4 0 4 8 1 10 -4 16 0 16 9 0 8 -4 13 -9 10 -4 -3 -8 0
-8 7 0 8 -5 7 -17 -2 -16 -13 -17 -12 -4 3 7 10 17 15 22 12 5 -3 9 0 9 5 0
21 2 26 13 40 10 12 9 12 -9 3 -29 -15 -36 -5 -17 25 13 20 14 26 3 36 -10 9
-11 9 -6 0 3 -6 2 -14 -3 -17 -5 -4 -8 2 -7 11 2 10 8 18 14 18 6 0 14 3 18 8
4 4 -1 7 -12 7 -18 1 -18 1 -1 11 9 5 17 15 17 21 0 7 -6 6 -15 -2 -9 -7 -18
-10 -22 -6 -3 3 -2 6 4 6 6 0 11 11 11 25 0 14 -5 22 -11 18 -6 -4 -7 -1 -2 7
4 7 9 26 11 42 3 21 0 27 -9 22 -8 -5 -7 -2 2 9 16 20 25 23 15 5 -6 -10 -4
-10 6 -1 12 11 11 16 -6 28 -18 15 -18 16 6 9 24 -6 24 -6 5 9 -11 8 -24 13
-29 10 -5 -4 -6 -1 -2 6 4 6 11 9 16 6 5 -3 11 -1 15 5 3 5 -2 10 -12 10 -17
1 -17 1 0 11 9 5 17 15 17 21 0 9 -3 9 -12 0 -22 -22 -29 -13 -8 10 23 25 27
47 6 29 -11 -9 -16 -9 -22 0 -5 8 -3 9 5 5 8 -5 12 -3 10 5 -3 26 1 40 10 35
5 -3 14 1 21 9 9 10 9 15 1 15 -6 0 -11 -5 -11 -11 0 -8 -6 -7 -17 2 -10 8
-14 9 -10 2 4 -6 3 -14 -2 -17 -5 -4 -8 2 -7 11 2 10 8 18 14 18 6 0 14 3 18
8 4 4 -1 7 -12 7 -18 1 -18 1 -1 11 9 5 17 15 17 21 0 7 -6 6 -15 -2 -9 -7
-18 -10 -22 -6 -3 3 -1 6 5 6 7 0 12 9 12 21 0 13 -4 18 -12 13 -9 -5 -9 -2 1
9 16 20 25 23 15 5 -6 -10 -4 -10 6 -1 12 11 11 16 -6 28 -18 15 -18 16 6 9
24 -6 24 -6 5 9 -11 8 -24 13 -29 10 -5 -4 -6 -1 -2 6 4 6 11 9 16 6 5 -3 11
-1 15 5 3 5 -2 10 -12 10 -17 1 -17 1 0 11 9 5 17 15 17 21 0 9 -3 9 -12 0
-22 -22 -29 -13 -8 10 23 25 27 47 6 29 -11 -9 -16 -9 -22 0 -5 8 -3 9 5 5 8
-5 12 -3 10 5 -3 26 1 40 10 35 5 -3 14 1 21 9 9 10 9 15 1 15 -6 0 -11 -5
-11 -11 0 -8 -6 -7 -17 2 -10 8 -14 9 -10 2 4 -6 3 -14 -2 -17 -5 -4 -8 2 -7
11 2 10 8 18 14 18 6 0 14 3 18 8 4 4 -1 7 -12 7 -18 1 -18 1 -1 11 9 5 17 15
17 21 0 7 -6 6 -15 -2 -9 -7 -18 -10 -22 -6 -3 3 -1 6 5 6 7 0 12 9 12 21 0
13 -4 18 -12 13 -9 -5 -9 -2 1 9 16 20 25 23 15 5 -6 -10 -4 -10 6 -1 12 11
11 16 -6 28 -18 15 -18 16 6 9 24 -6 24 -6 5 9 -11 8 -24 13 -29 10 -5 -4 -6
-1 -2 6 4 6 11 9 16 6 5 -3 11 -1 15 5 3 5 -2 10 -12 10 -17 1 -17 1 0 11 9 5
17 15 17 21 0 9 -3 9 -12 0 -22 -22 -29 -13 -8 10 23 25 27 47 6 29 -11 -9
-16 -9 -22 0 -5 8 -3 9 5 5 8 -5 12 -3 10 5 -3 26 1 40 10 35 5 -3 14 1 21 9
9 10 9 15 1 15 -6 0 -11 -5 -11 -11 0 -8 -6 -7 -17 2 -10 8 -14 9 -10 2 4 -6
3 -14 -2 -17 -5 -4 -8 2 -7 11 2 10 8 18 14 18 6 0 14 3 18 8 4 4 -1 7 -12 7
-18 1 -18 1 -1 11 9 5 17 15 17 21 0 7 -6 6 -15 -2 -9 -7 -18 -10 -22 -6 -3 3
-1 6 5 6 7 0 12 9 12 21 0 13 -4 18 -12 13 -9 -5 -9 -2 1 9 16 20 25 23 15 5
-6 -10 -4 -10 6 -1 12 11 11 16 -6 28 -18 15 -18 16 6 9 24 -6 24 -6 5 9 -11
8 -24 13 -29 10 -5 -4 -6 -1 -2 6 4 6 11 9 16 6 5 -3 11 -1 15 5 3 5 -2 10
-12 10 -17 1 -17 1 0 11 9 5 17 15 17 21 0 9 -3 9 -12 0 -22 -22 -29 -13 -8
10 22 24 28 47 7 29 -11 -8 -13 -4 -9 21 4 23 2 29 -8 23 -9 -5 -11 -4 -6 4 6
9 11 9 21 1 9 -8 15 -8 20 0 7 12 7 12 -27 14 -15 1 -31 6 -35 10 -4 5 -2 6 5
2 6 -4 12 -2 12 3 0 17 -18 13 -28 -5 -8 -15 -10 -15 -15 0 -4 9 -11 16 -17
16 -6 0 -9 -4 -6 -9 3 -5 -1 -11 -9 -14 -10 -4 -12 -1 -8 11 5 13 3 14 -7 5
-8 -8 -20 -9 -36 -3 -14 6 -26 6 -29 0 -3 -5 -13 -6 -22 -3 -11 5 -14 3 -8 -6
6 -10 3 -11 -11 -3 -11 5 -24 8 -30 5 -6 -2 -16 7 -22 19 -6 13 -11 17 -11 11
-1 -7 -8 -13 -16 -13 -8 0 -15 -5 -15 -10 0 -7 6 -7 20 0 11 6 20 7 20 2 0
-21 -39 -19 -54 2 -12 17 -16 19 -28 8 -11 -11 -10 -12 5 -7 10 5 17 2 17 -6
0 -7 -3 -9 -7 -6 -3 4 -13 1 -21 -6 -13 -9 -14 -9 -8 1 4 7 2 12 -4 12 -6 0
-8 5 -4 12 4 7 3 8 -5 4 -6 -4 -9 -11 -6 -16 3 -4 -2 -10 -10 -13 -10 -4 -12
-1 -8 11 6 15 5 16 -12 2 -17 -14 -18 -13 -11 4 6 18 6 19 -11 4 -19 -17 -78
-19 -102 -4 -10 6 -12 6 -7 -2 5 -8 0 -11 -16 -8 -13 2 -29 -1 -36 -7 -9 -7
-12 -7 -10 0 2 6 0 10 -3 10 -3 -1 -13 4 -23 12 -15 12 -16 12 -9 -5 6 -17 5
-18 -12 -4 -10 8 -16 10 -12 3 5 -8 0 -11 -13 -10 -11 1 -20 5 -20 9 0 4 -5 8
-11 8 -5 0 -8 -4 -5 -8 3 -5 -1 -9 -9 -9 -8 0 -15 4 -15 9 0 4 -5 8 -11 8 -5
0 -7 -5 -3 -12 4 -6 3 -8 -4 -4 -6 3 -14 1 -18 -5 -5 -8 -13 -4 -25 12 -15 20
-20 22 -31 11 -11 -11 -10 -12 5 -7 10 5 17 2 17 -6 0 -7 -3 -9 -7 -6 -3 4
-13 1 -21 -6 -13 -9 -14 -9 -8 1 4 7 2 12 -4 12 -6 0 -8 5 -4 12 4 7 3 8 -5 4
-6 -4 -9 -11 -6 -16 3 -4 -2 -10 -10 -13 -10 -4 -12 -1 -8 11 6 15 5 16 -12 2
-17 -14 -18 -13 -11 4 6 18 6 19 -11 4 -19 -17 -78 -19 -102 -4 -10 6 -12 6
-7 -2 5 -8 0 -11 -16 -8 -13 2 -29 -2 -37 -8 -11 -8 -13 -8 -7 2 4 7 2 12 -5
12 -8 0 -7 5 2 18 13 15 12 16 -3 3 -10 -7 -16 -17 -13 -21 3 -4 -2 -10 -10
-13 -10 -4 -12 -1 -8 11 6 15 5 15 -10 3 -20 -16 -23 -2 -4 19 6 8 3 7 -9 -3
-11 -9 -24 -14 -29 -10 -4 5 -5 3 -2 -3 4 -7 0 -15 -9 -18 -8 -3 -13 -2 -10 3
3 4 -1 17 -9 27 -14 18 -14 18 -10 -2z m-638 -679 c0 -8 -4 -12 -9 -9 -5 3 -6
10 -3 15 9 13 12 11 12 -6z m0 -440 c0 -8 -4 -12 -9 -9 -5 3 -6 10 -3 15 9 13
12 11 12 -6z m0 -520 c0 -8 -4 -12 -9 -9 -5 3 -6 10 -3 15 9 13 12 11 12 -6z
m1858 -85 c-3 -5 -12 -10 -18 -10 -7 0 -6 4 3 10 19 12 23 12 15 0z m-5 -166
c0 -8 -19 -13 -24 -6 -3 5 1 9 9 9 8 0 15 -2 15 -3z m-120 -360 c0 -8 -19 -13
-24 -6 -3 5 1 9 9 9 8 0 15 -2 15 -3z m-1580 -46 c0 -6 -6 -5 -15 2 -8 7 -15
14 -15 16 0 2 7 1 15 -2 8 -4 15 -11 15 -16z m1425 -137 c3 -5 2 -12 -3 -15
-5 -3 -9 1 -9 9 0 17 3 19 12 6z m-95 -84 c0 -2 -9 -12 -20 -22 -24 -21 -27
-14 -4 9 15 15 24 20 24 13z m-624 -179 c3 -4 -1 -5 -10 -4 -8 1 -18 5 -22 8
-3 4 1 5 10 4 8 -1 18 -5 22 -8z"/>
<path d="M7449 3313 c-13 -16 -12 -17 4 -4 16 13 21 21 13 21 -2 0 -10 -8 -17
-17z"/>
<path d="M7929 3313 c-13 -16 -12 -17 4 -4 9 7 17 15 17 17 0 8 -8 3 -21 -13z"/>
<path d="M8211 3317 c-8 -10 -7 -14 2 -14 8 0 14 6 14 14 0 7 -1 13 -2 13 -2
0 -8 -6 -14 -13z"/>
<path d="M6735 3309 c-3 -4 2 -6 10 -5 21 3 28 13 10 13 -9 0 -18 -4 -20 -8z"/>
<path d="M7375 3309 c-3 -4 2 -6 10 -5 21 3 28 13 10 13 -9 0 -18 -4 -20 -8z"/>
<path d="M7475 3310 c-3 -5 -1 -10 4 -10 6 0 11 5 11 10 0 6 -2 10 -4 10 -3 0
-8 -4 -11 -10z"/>
<path d="M7855 3309 c-3 -4 2 -6 10 -5 21 3 28 13 10 13 -9 0 -18 -4 -20 -8z"/>
<path d="M7955 3310 c-3 -5 -1 -10 4 -10 6 0 11 5 11 10 0 6 -2 10 -4 10 -3 0
-8 -4 -11 -10z"/>
<path d="M7660 3299 c0 -5 5 -7 10 -4 6 3 10 8 10 11 0 2 -4 4 -10 4 -5 0 -10
-5 -10 -11z"/>
<path d="M6567 3279 c7 -7 15 -10 18 -7 3 3 -2 9 -12 12 -14 6 -15 5 -6 -5z"/>
<path d="M6550 3105 c0 -2 6 -8 13 -14 10 -8 14 -7 14 2 0 8 -6 14 -14 14 -7
0 -13 -1 -13 -2z"/>
<path d="M6556 2752 c-3 -5 1 -9 9 -9 8 0 12 4 9 9 -3 4 -7 8 -9 8 -2 0 -6 -4
-9 -8z"/>
<path d="M6562 2701 c-11 -7 -11 -9 0 -14 9 -3 15 1 15 9 0 8 -1 14 -1 14 -1
0 -7 -4 -14 -9z"/>
<path d="M6563 2565 c0 -8 4 -12 9 -9 5 3 6 10 3 15 -9 13 -12 11 -12 -6z"/>
<path d="M6550 2365 c0 -2 6 -8 13 -14 10 -8 14 -7 14 2 0 8 -6 14 -14 14 -7
0 -13 -1 -13 -2z"/>
<path d="M6565 2301 c-3 -5 -2 -12 3 -15 5 -3 9 1 9 9 0 17 -3 19 -12 6z"/>
<path d="M6556 2258 c3 -5 10 -6 15 -3 13 9 11 12 -6 12 -8 0 -12 -4 -9 -9z"/>
<path d="M6560 2220 c-9 -6 -10 -10 -3 -10 6 0 15 5 18 10 8 12 4 12 -15 0z"/>
<path d="M6550 2145 c0 -2 6 -8 13 -14 10 -8 14 -7 14 2 0 8 -6 14 -14 14 -7
0 -13 -1 -13 -2z"/>
<path d="M8455 2081 c-3 -5 0 -13 6 -17 7 -4 9 -3 5 4 -3 5 0 13 6 15 9 4 10
6 1 6 -6 1 -14 -3 -18 -8z"/>
<path d="M8450 2040 c0 -16 17 -20 28 -7 8 10 6 13 -9 14 -10 1 -19 -2 -19 -7z"/>
<path d="M8470 1919 c0 -5 5 -7 10 -4 6 3 10 8 10 11 0 2 -4 4 -10 4 -5 0 -10
-5 -10 -11z"/>
<path d="M8449 1873 c-13 -16 -12 -17 4 -4 16 13 21 21 13 21 -2 0 -10 -8 -17
-17z"/>
<path d="M6556 1792 c-3 -5 1 -9 9 -9 8 0 12 4 9 9 -3 4 -7 8 -9 8 -2 0 -6 -4
-9 -8z"/>
<path d="M6562 1741 c-11 -7 -11 -9 0 -14 9 -3 15 1 15 9 0 8 -1 14 -1 14 -1
0 -7 -4 -14 -9z"/>
<path d="M4835 1340 c-3 -5 -1 -10 4 -10 6 0 11 5 11 10 0 6 -2 10 -4 10 -3 0
-8 -4 -11 -10z"/>
<path d="M4824 1309 c-3 -6 -2 -15 3 -20 5 -5 9 -1 9 11 0 23 -2 24 -12 9z"/>
<path d="M8295 1020 c-3 -5 -1 -10 4 -10 6 0 11 5 11 10 0 6 -2 10 -4 10 -3 0
-8 -4 -11 -10z"/>
<path d="M4679 1008 c-5 -16 -4 -46 2 -42 4 2 7 13 6 24 -1 17 -5 26 -8 18z"/>
<path d="M4629 923 c-13 -16 -12 -17 4 -4 16 13 21 21 13 21 -2 0 -10 -8 -17
-17z"/>
<path d="M6851 864 c0 -11 3 -14 6 -6 3 7 2 16 -1 19 -3 4 -6 -2 -5 -13z"/>
<path d="M3313 809 c-2 -23 3 -25 10 -4 4 8 3 16 -1 19 -4 3 -9 -4 -9 -15z"/>
<path d="M6943 787 c0 -8 6 -14 14 -14 9 0 10 4 2 14 -6 7 -12 13 -14 13 -1 0
-2 -6 -2 -13z"/>
<path d="M4367 719 c7 -7 15 -10 18 -7 3 3 -2 9 -12 12 -14 6 -15 5 -6 -5z"/>
</g>
</svg>
