<svg width="51" height="51" viewBox="0 0 51 51" fill="none" xmlns="http://www.w3.org/2000/svg">
<path fill-rule="evenodd" clip-rule="evenodd" d="M40.8538 47.8335C42.7048 47.8335 44.48 47.0982 45.7889 45.7893C47.0977 44.4805 47.833 42.7053 47.833 40.8543C47.833 39.0033 47.0977 37.2282 45.7889 35.9193C44.48 34.6105 42.7048 33.8752 40.8538 33.8752C39.0029 33.8752 37.2277 34.6105 35.9188 35.9193C34.61 37.2282 33.8747 39.0033 33.8747 40.8543C33.8747 42.7053 34.61 44.4805 35.9188 45.7893C37.2277 47.0982 39.0029 47.8335 40.8538 47.8335ZM40.8538 50.6252C43.4452 50.6252 45.9305 49.5957 47.7629 47.7634C49.5953 45.931 50.6247 43.4457 50.6247 40.8543C50.6247 38.2629 49.5953 35.7777 47.7629 33.9453C45.9305 32.1129 43.4452 31.0835 40.8538 31.0835C38.2625 31.0835 35.7772 32.1129 33.9448 33.9453C32.1124 35.7777 31.083 38.2629 31.083 40.8543C31.083 43.4457 32.1124 45.931 33.9448 47.7634C35.7772 49.5957 38.2625 50.6252 40.8538 50.6252Z" fill="#4ECB71"/>
<path fill-rule="evenodd" clip-rule="evenodd" d="M40.8538 35.9688C41.224 35.9688 41.5791 36.1158 41.8408 36.3776C42.1026 36.6393 42.2497 36.9944 42.2497 37.3646V40.2763L43.2365 41.2631C43.4908 41.5264 43.6315 41.879 43.6283 42.245C43.6251 42.611 43.4783 42.9611 43.2195 43.2199C42.9607 43.4787 42.6106 43.6254 42.2447 43.6286C41.8787 43.6318 41.5261 43.4911 41.2628 43.2369L39.458 41.432V37.3646C39.458 36.9944 39.6051 36.6393 39.8668 36.3776C40.1286 36.1158 40.4836 35.9688 40.8538 35.9688Z" fill="#4ECB71"/>
<path fill-rule="evenodd" clip-rule="evenodd" d="M11.5413 24.1042H8.74967V26.8958H11.5413V24.1042ZM8.74967 21.3125C8.00928 21.3125 7.29921 21.6066 6.77567 22.1302C6.25213 22.6537 5.95801 23.3638 5.95801 24.1042V26.8958C5.95801 27.6362 6.25213 28.3463 6.77567 28.8698C7.29921 29.3934 8.00928 29.6875 8.74967 29.6875H11.5413C12.2817 29.6875 12.9918 29.3934 13.5153 28.8698C14.0389 28.3463 14.333 27.6362 14.333 26.8958V24.1042C14.333 23.3638 14.0389 22.6537 13.5153 22.1302C12.9918 21.6066 12.2817 21.3125 11.5413 21.3125H8.74967ZM22.708 24.1042H19.9163V26.8958H22.708V24.1042ZM19.9163 21.3125C19.1759 21.3125 18.4659 21.6066 17.9423 22.1302C17.4188 22.6537 17.1247 23.3638 17.1247 24.1042V26.8958C17.1247 27.6362 17.4188 28.3463 17.9423 28.8698C18.4659 29.3934 19.1759 29.6875 19.9163 29.6875H22.708C23.4484 29.6875 24.1585 29.3934 24.682 28.8698C25.2056 28.3463 25.4997 27.6362 25.4997 26.8958V24.1042C25.4997 23.3638 25.2056 22.6537 24.682 22.1302C24.1585 21.6066 23.4484 21.3125 22.708 21.3125H19.9163ZM33.8747 24.1042H31.083V26.8958H33.8747V24.1042ZM31.083 21.3125C30.3426 21.3125 29.6325 21.6066 29.109 22.1302C28.5855 22.6537 28.2913 23.3638 28.2913 24.1042V26.8958C28.2913 27.6362 28.5855 28.3463 29.109 28.8698C29.6325 29.3934 30.3426 29.6875 31.083 29.6875H33.8747C34.6151 29.6875 35.3251 29.3934 35.8487 28.8698C36.3722 28.3463 36.6663 27.6362 36.6663 26.8958V24.1042C36.6663 23.3638 36.3722 22.6537 35.8487 22.1302C35.3251 21.6066 34.6151 21.3125 33.8747 21.3125H31.083Z" fill="#4ECB71"/>
<path fill-rule="evenodd" clip-rule="evenodd" d="M11.5413 35.2707H8.74967V38.0623H11.5413V35.2707ZM8.74967 32.479C8.00928 32.479 7.29921 32.7731 6.77567 33.2967C6.25213 33.8202 5.95801 34.5303 5.95801 35.2707V38.0623C5.95801 38.8027 6.25213 39.5128 6.77567 40.0363C7.29921 40.5599 8.00928 40.854 8.74967 40.854H11.5413C12.2817 40.854 12.9918 40.5599 13.5153 40.0363C14.0389 39.5128 14.333 38.8027 14.333 38.0623V35.2707C14.333 34.5303 14.0389 33.8202 13.5153 33.2967C12.9918 32.7731 12.2817 32.479 11.5413 32.479H8.74967ZM22.708 35.2707H19.9163V38.0623H22.708V35.2707ZM19.9163 32.479C19.1759 32.479 18.4659 32.7731 17.9423 33.2967C17.4188 33.8202 17.1247 34.5303 17.1247 35.2707V38.0623C17.1247 38.8027 17.4188 39.5128 17.9423 40.0363C18.4659 40.5599 19.1759 40.854 19.9163 40.854H22.708C23.4484 40.854 24.1585 40.5599 24.682 40.0363C25.2056 39.5128 25.4997 38.8027 25.4997 38.0623V35.2707C25.4997 34.5303 25.2056 33.8202 24.682 33.2967C24.1585 32.7731 23.4484 32.479 22.708 32.479H19.9163Z" fill="#4ECB71"/>
<path fill-rule="evenodd" clip-rule="evenodd" d="M3.16667 8.75C3.16667 8.3798 3.31373 8.02477 3.5755 7.763C3.83727 7.50123 4.1923 7.35417 4.5625 7.35417H11.5417V4.5625H4.5625C3.45191 4.5625 2.3868 5.00368 1.60149 5.78899C0.816182 6.5743 0.375 7.63941 0.375 8.75V42.25C0.375 43.3606 0.816182 44.4257 1.60149 45.211C2.3868 45.9963 3.45191 46.4375 4.5625 46.4375H32.8351C32.2398 45.5849 31.7851 44.6424 31.4881 43.6458H4.5625C4.1923 43.6458 3.83727 43.4988 3.5755 43.237C3.31373 42.9752 3.16667 42.6202 3.16667 42.25V8.75ZM39.4583 31.181C40.3842 31.0486 41.3242 31.0486 42.25 31.181V8.75C42.25 7.63941 41.8088 6.5743 41.0235 5.78899C40.2382 5.00368 39.1731 4.5625 38.0625 4.5625H33.875V7.35417H38.0625C38.4327 7.35417 38.7877 7.50123 39.0495 7.763C39.3113 8.02477 39.4583 8.3798 39.4583 8.75V31.181Z" fill="#4ECB71"/>
<path fill-rule="evenodd" clip-rule="evenodd" d="M14.333 7.35417H29.0772V4.5625H14.333V7.35417Z" fill="#4ECB71"/>
<path fill-rule="evenodd" clip-rule="evenodd" d="M31.083 4.5625H14.333V8.75C14.333 9.1202 14.1859 9.47523 13.9242 9.737C13.6624 9.99877 13.3074 10.1458 12.9372 10.1458C12.567 10.1458 12.2119 9.99877 11.9502 9.737C11.6884 9.47523 11.5413 9.1202 11.5413 8.75V4.5625H4.56217C3.82178 4.5625 3.11171 4.85662 2.58817 5.38016C2.06463 5.9037 1.77051 6.61377 1.77051 7.35417V14.3333C1.77051 15.0737 2.06463 15.7838 2.58817 16.3073C3.11171 16.8309 3.82178 17.125 4.56217 17.125H38.0622C38.8026 17.125 39.5126 16.8309 40.0362 16.3073C40.5597 15.7838 40.8538 15.0737 40.8538 14.3333V7.35417C40.8538 6.61377 40.5597 5.9037 40.0362 5.38016C39.5126 4.85662 38.8026 4.5625 38.0622 4.5625H33.8747V8.75C33.8747 9.1202 33.7276 9.47523 33.4658 9.737C33.2041 9.99877 32.849 10.1458 32.4788 10.1458C32.1086 10.1458 31.7536 9.99877 31.4918 9.737C31.2301 9.47523 31.083 9.1202 31.083 8.75V4.5625Z" fill="#4ECB71"/>
<path fill-rule="evenodd" clip-rule="evenodd" d="M42.2503 17.1252H3.16699V14.3335H42.2503V17.1252Z" fill="#4ECB71"/>
<path d="M8.75 1.77083C8.75 1.40064 8.89706 1.0456 9.15883 0.78383C9.4206 0.522061 9.77564 0.375 10.1458 0.375C10.516 0.375 10.8711 0.522061 11.1328 0.78383C11.3946 1.0456 11.5417 1.40064 11.5417 1.77083V7.35417C11.5417 7.72436 11.3946 8.0794 11.1328 8.34117C10.8711 8.60294 10.516 8.75 10.1458 8.75C9.77564 8.75 9.4206 8.60294 9.15883 8.34117C8.89706 8.0794 8.75 7.72436 8.75 7.35417V1.77083ZM28.2917 1.77083C28.2917 1.40064 28.4387 1.0456 28.7005 0.78383C28.9623 0.522061 29.3173 0.375 29.6875 0.375C30.0577 0.375 30.4127 0.522061 30.6745 0.78383C30.9363 1.0456 31.0833 1.40064 31.0833 1.77083V7.35417C31.0833 7.72436 30.9363 8.0794 30.6745 8.34117C30.4127 8.60294 30.0577 8.75 29.6875 8.75C29.3173 8.75 28.9623 8.60294 28.7005 8.34117C28.4387 8.0794 28.2917 7.72436 28.2917 7.35417V1.77083Z" fill="#4ECB71"/>
</svg>
