<svg width="253" height="253" viewBox="0 0 253 253" fill="none" xmlns="http://www.w3.org/2000/svg">
<path d="M84.3327 115.958C95.516 115.958 106.241 111.516 114.149 103.608C122.057 95.7002 126.499 84.975 126.499 73.7917C126.499 62.6084 122.057 51.8831 114.149 43.9753C106.241 36.0675 95.516 31.625 84.3327 31.625C73.1494 31.625 62.4241 36.0675 54.5163 43.9753C46.6086 51.8831 42.166 62.6084 42.166 73.7917C42.166 84.975 46.6086 95.7002 54.5163 103.608C62.4241 111.516 73.1494 115.958 84.3327 115.958ZM179.208 115.958C187.595 115.958 195.639 112.626 201.57 106.696C207.501 100.765 210.833 92.7208 210.833 84.3333C210.833 75.9459 207.501 67.9019 201.57 61.9711C195.639 56.0402 187.595 52.7083 179.208 52.7083C170.82 52.7083 162.776 56.0402 156.845 61.9711C150.915 67.9019 147.583 75.9459 147.583 84.3333C147.583 92.7208 150.915 100.765 156.845 106.696C162.776 112.626 170.82 115.958 179.208 115.958Z" fill="black"/>
<path d="M44.8027 137.042C38.5121 137.042 32.4792 139.54 28.031 143.989C23.5829 148.437 21.084 154.47 21.084 160.76V163.396C21.084 163.396 21.084 210.833 84.334 210.833C98.9869 210.833 110.245 208.293 118.89 204.371C116.94 197.921 115.952 191.218 115.959 184.479C115.959 167.011 122.495 151.072 133.247 138.971C130.284 137.694 127.091 137.038 123.865 137.042H44.8027Z" fill="black"/>
<path d="M242.458 184.479C242.458 199.856 236.35 214.603 225.477 225.477C214.603 236.35 199.856 242.458 184.479 242.458C169.102 242.458 154.355 236.35 143.482 225.477C132.608 214.603 126.5 199.856 126.5 184.479C126.5 169.102 132.608 154.355 143.482 143.482C154.355 132.608 169.102 126.5 184.479 126.5C199.856 126.5 214.603 132.608 225.477 143.482C236.35 154.355 242.458 169.102 242.458 184.479ZM212.372 159.664L173.937 198.11L156.586 180.747C155.596 179.758 154.254 179.202 152.854 179.202C151.454 179.202 150.112 179.758 149.122 180.747C148.133 181.737 147.577 183.079 147.577 184.479C147.577 185.879 148.133 187.221 149.122 188.211L170.206 209.294C170.695 209.785 171.277 210.175 171.917 210.44C172.558 210.706 173.244 210.843 173.937 210.843C174.631 210.843 175.317 210.706 175.958 210.44C176.598 210.175 177.18 209.785 177.669 209.294L219.836 167.128C220.826 166.138 221.382 164.796 221.382 163.396C221.382 161.996 220.826 160.654 219.836 159.664C218.846 158.674 217.504 158.118 216.104 158.118C214.704 158.118 213.362 158.674 212.372 159.664Z" fill="black"/>
</svg>
