<svg width="20" height="20" viewBox="0 0 42 42" fill="none" xmlns="http://www.w3.org/2000/svg">
<path d="M4.66669 7H37.3334C37.9522 7 38.5457 7.24583 38.9833 7.68342C39.4209 8.121 39.6667 8.71449 39.6667 9.33333V32.6667C39.6667 33.2855 39.4209 33.879 38.9833 34.3166C38.5457 34.7542 37.9522 35 37.3334 35H4.66669C4.04785 35 3.45436 34.7542 3.01677 34.3166C2.57919 33.879 2.33335 33.2855 2.33335 32.6667V9.33333C2.33335 8.71449 2.57919 8.121 3.01677 7.68342C3.45436 7.24583 4.04785 7 4.66669 7ZM6.46336 32.6667H35.3967L27.23 24.22L28.91 22.5983L37.3334 31.3133V11.1067L22.8317 25.5383C22.3945 25.9729 21.8031 26.2169 21.1867 26.2169C20.5703 26.2169 19.9789 25.9729 19.5417 25.5383L4.66669 10.745V31.1617L13.2534 22.575L14.8984 24.22L6.46336 32.6667ZM35.805 9.33333H6.55669L21.1867 23.8817L35.805 9.33333Z" fill="#CAC9C9"/>
</svg>
