<svg width="97" height="97" viewBox="0 0 97 97" fill="none" xmlns="http://www.w3.org/2000/svg">
<path d="M20.1396 29.0877C25.0236 29.0877 28.9828 25.1285 28.9828 20.2445C28.9828 15.3606 25.0236 11.4014 20.1396 11.4014C15.2557 11.4014 11.2965 15.3606 11.2965 20.2445C11.2965 25.1285 15.2557 29.0877 20.1396 29.0877Z" fill="white"/>
<path d="M37.3329 35.7887V84.8505H52.5659V60.5883C52.5659 54.1863 53.7703 47.9864 61.7082 47.9864C69.5369 47.9864 69.6339 55.3059 69.6339 60.9925V84.8545H84.875V57.9491C84.875 44.7329 82.0297 34.5762 66.5824 34.5762C59.166 34.5762 54.1947 38.6461 52.1617 42.4978H51.9556V35.7887H37.3329ZM12.509 35.7887H27.7662V84.8505H12.509V35.7887Z" fill="white"/>
</svg>
