<svg width="190" height="202" viewBox="0 0 190 202" fill="none" xmlns="http://www.w3.org/2000/svg">
<path d="M94.8721 0.000203201C98.1798 0.000203201 101.437 0.214828 104.467 0.719828C107.451 1.11086 110.396 1.76141 113.267 2.66408C116.145 3.5352 118.961 4.62095 121.776 5.98445C124.516 7.28483 127.331 8.87558 130.146 10.6052C134.906 13.6352 139.59 16.0845 144.362 18.0413C153.757 21.8015 163.691 24.039 173.791 24.6695C178.917 25.0356 184.181 25.2502 189.661 25.2502V75.7502C189.661 85.3452 188.436 94.4352 185.987 103.096C183.634 111.633 180.291 119.866 176.026 127.626C171.778 135.376 166.753 142.673 161.027 149.404C155.214 156.289 148.919 162.752 142.191 168.746C135.373 174.757 128.193 180.344 120.69 185.474C113.191 190.676 105.616 195.511 98.0409 199.904L95.011 201.71L91.981 199.904C84.1939 195.396 76.5877 190.582 69.1802 185.474C61.6354 180.402 54.4514 174.812 47.6798 168.746C40.9556 162.752 34.6652 156.289 28.856 149.404C23.1456 142.644 18.0977 135.352 13.7817 127.626C9.58934 119.831 6.24967 111.607 3.82058 103.096C1.3558 94.192 0.140589 84.9887 0.209831 75.7502V25.2502C5.70171 25.2502 10.9663 25.0356 16.0921 24.6695C21.1378 24.319 26.1509 23.5974 31.0906 22.5106C35.926 21.4248 40.7613 19.9856 45.521 18.0413C50.4599 16.048 55.1951 13.5832 59.661 10.681C65.216 7.0702 70.8467 4.40633 76.4017 2.65145C82.3843 0.81744 88.6152 -0.0769546 94.8721 0.000203201ZM176.96 37.6606C167.403 37.1969 157.935 35.5991 148.756 32.9009C139.624 30.1772 130.927 26.1686 122.925 20.9956C118.774 18.2711 114.266 16.134 109.53 14.6452C104.798 13.2152 99.8779 12.5087 94.9352 12.5495C89.9559 12.5172 84.9993 13.2235 80.2271 14.6452C75.4835 16.0856 70.9815 18.226 66.8698 20.9956C58.8537 26.1968 50.1338 30.223 40.976 32.9514C32.0248 35.5522 22.6571 37.1429 12.8348 37.7237V75.8133C12.8348 84.1837 13.9206 92.188 16.0921 99.9018C18.3043 107.549 21.3527 114.928 25.1821 121.907C29.0573 128.959 33.6248 135.607 38.8171 141.754C44.0817 147.953 49.6998 153.722 55.7598 159.201C61.8198 164.693 68.1702 169.743 74.811 174.427C81.5148 179.124 88.2313 183.378 94.9352 187.267C101.8 183.271 108.493 178.987 114.996 174.427C121.681 169.758 128.065 164.673 134.111 159.201C140.171 153.722 145.801 147.953 151.066 141.754C156.259 135.607 160.826 128.959 164.701 121.907C168.513 114.937 171.517 107.554 173.652 99.9018C175.89 92.0694 177.003 83.9589 176.96 75.8133V37.6606Z" fill="black"/>
<path fill-rule="evenodd" clip-rule="evenodd" d="M141.938 59.4515L136.383 54.6792L131.257 55.1211L76.2119 120.115L57.4638 93.3496L52.4138 92.4911L46.5684 96.67L45.6973 101.72L69.7984 136.136L72.538 137.651L78.3076 138.004L81.2619 136.716L142.304 64.5646L141.938 59.4515Z" fill="black"/>
</svg>
